<svg width="28" height="28" viewBox="0 0 28 28" fill="none" xmlns="http://www.w3.org/2000/svg">
<path d="M14.0007 2.33301C7.56769 2.33301 2.33398 7.56672 2.33398 13.9997C2.33398 20.4326 7.56769 25.6663 14.0007 25.6663C20.4336 25.6663 25.6673 20.4326 25.6673 13.9997C25.6673 7.56672 20.4336 2.33301 14.0007 2.33301ZM14.0007 4.08301C19.4878 4.08301 23.9173 8.51249 23.9173 13.9997C23.9173 19.4869 19.4878 23.9163 14.0007 23.9163C8.51346 23.9163 4.08398 19.4869 4.08398 13.9997C4.08398 8.51249 8.51346 4.08301 14.0007 4.08301ZM13.6953 6.98714C13.4634 6.99076 13.2425 7.08627 13.081 7.25268C12.9195 7.41909 12.8307 7.6428 12.834 7.87467V14.8747C12.834 15.1067 12.9262 15.3293 13.0903 15.4934C13.2544 15.6575 13.4769 15.7497 13.709 15.7497H18.3757C18.4916 15.7513 18.6067 15.7299 18.7143 15.6867C18.8219 15.6434 18.9198 15.5792 19.0024 15.4978C19.085 15.4164 19.1506 15.3194 19.1953 15.2124C19.2401 15.1054 19.2631 14.9906 19.2631 14.8747C19.2631 14.7587 19.2401 14.6439 19.1953 14.5369C19.1506 14.43 19.085 14.3329 19.0024 14.2515C18.9198 14.1701 18.8219 14.1059 18.7143 14.0627C18.6067 14.0195 18.4916 13.998 18.3757 13.9997H14.584V7.87467C14.5857 7.75756 14.5638 7.6413 14.5197 7.53279C14.4757 7.42427 14.4102 7.32571 14.3274 7.24295C14.2445 7.16018 14.1459 7.09489 14.0373 7.05095C13.9287 7.00701 13.8124 6.98531 13.6953 6.98714Z" fill="#29395B"/>
</svg>
