<svg width="130" height="17" viewBox="0 0 130 17" fill="none" xmlns="http://www.w3.org/2000/svg">
<path fill-rule="evenodd" clip-rule="evenodd" d="M49.635 1.86411C48.7561 0.176431 46.6782 -0.488013 44.9819 0.380688C43.2782 1.25309 42.6044 3.34139 43.4768 5.04502L46.5615 3.46539C43.4768 5.04502 43.4776 5.04666 43.4785 5.04833L43.4803 5.05188L43.4843 5.05965L43.4938 5.07788L43.5187 5.12496C43.5379 5.16098 43.5624 5.20621 43.5924 5.26002C43.6523 5.3676 43.734 5.50975 43.8384 5.68148C44.047 6.02458 44.3475 6.48805 44.7471 7.03131C45.5443 8.11491 46.75 9.53521 48.425 10.9517C51.8104 13.8144 57.0658 16.6125 64.5025 16.6175H64.5048C71.9387 16.6175 77.2414 13.8223 80.6723 10.9758C82.3719 9.56561 83.6044 8.15151 84.4223 7.073C84.8323 6.5323 85.1417 6.07122 85.3568 5.73029C85.4644 5.55965 85.5487 5.41855 85.6104 5.31199C85.6413 5.25869 85.6666 5.21397 85.6864 5.17844L85.7119 5.1321L85.7216 5.11423L85.7257 5.10664L85.7276 5.10319C85.7285 5.10156 85.7293 5.09996 82.6734 3.46539L85.7293 5.09996C86.6321 3.41221 85.9957 1.3122 84.3079 0.409447C82.627 -0.489652 80.5372 0.137943 79.6284 1.81039C79.6262 1.81443 79.6212 1.82316 79.6136 1.83635C79.5931 1.87168 79.5534 1.93869 79.494 2.03292C79.3749 2.22171 79.1781 2.51738 78.8995 2.88479C78.34 3.62249 77.4656 4.63 76.2465 5.64146C73.8401 7.63799 70.0588 9.68593 64.5059 9.6862C58.9558 9.68219 55.2399 7.63721 52.9006 5.65906C51.7133 4.65498 50.8683 3.6553 50.3304 2.92404C50.0625 2.55987 49.8744 2.2672 49.7612 2.08102C49.7047 1.9881 49.6673 1.92232 49.6482 1.88813C49.6415 1.87613 49.6371 1.86806 49.635 1.86411Z" fill="#E78722"/>
<path fill-rule="evenodd" clip-rule="evenodd" d="M93.2067 1.86411C92.3277 0.17643 90.2499 -0.488012 88.5535 0.380689C86.8499 1.25309 86.176 3.34139 87.0484 5.04502L90.1331 3.46539C87.0484 5.04502 87.0493 5.04666 87.0501 5.04833L87.052 5.05188L87.056 5.05965L87.0655 5.07788L87.0903 5.12496C87.1096 5.16098 87.1341 5.20621 87.1641 5.26002C87.224 5.3676 87.3057 5.50975 87.4101 5.68148C87.6187 6.02458 87.9192 6.48806 88.3188 7.03131C89.1159 8.11491 90.3217 9.53521 91.9967 10.9517C95.3821 13.8144 100.637 16.6125 108.074 16.6175H108.076C115.51 16.6175 120.815 13.8224 124.247 10.9766C125.948 9.56668 127.181 8.15286 128 7.07457C128.41 6.53398 128.72 6.073 128.936 5.73216C129.043 5.56157 129.128 5.42052 129.189 5.314C129.22 5.26072 129.246 5.21602 129.266 5.18051L129.291 5.1342L129.301 5.11634L129.305 5.10876L129.307 5.10531C129.308 5.10368 129.309 5.10209 126.254 3.46539L129.308 5.10209C130.212 3.41496 129.578 1.31451 127.89 0.410585C126.21 -0.489746 124.12 0.136546 123.21 1.80862C123.207 1.81279 123.202 1.82144 123.195 1.83434C123.174 1.86971 123.135 1.93677 123.075 2.03104C122.956 2.21993 122.759 2.5157 122.48 2.88322C121.919 3.62114 121.044 4.62892 119.823 5.64065C117.414 7.63786 113.631 9.68593 108.078 9.6862C102.527 9.68219 98.8116 7.63721 96.4723 5.65906C95.2849 4.65498 94.44 3.6553 93.902 2.92404C93.6341 2.55987 93.446 2.2672 93.3328 2.08101C93.2764 1.9881 93.2389 1.92232 93.2199 1.88813C93.2132 1.87613 93.2088 1.86806 93.2067 1.86411Z" fill="#E78722"/>
<path fill-rule="evenodd" clip-rule="evenodd" d="M6.53988 1.86411C5.66093 0.17643 3.58313 -0.488012 1.88673 0.380689C0.183101 1.25309 -0.490741 3.34139 0.381665 5.04502L3.46636 3.46539C0.381665 5.04502 0.382505 5.04666 0.383365 5.04833L0.385187 5.05188L0.389196 5.05965L0.398682 5.07788L0.423562 5.12496C0.442787 5.16098 0.467327 5.20621 0.497288 5.26002C0.557188 5.3676 0.638902 5.50975 0.743298 5.68148C0.951869 6.02458 1.25238 6.48806 1.65202 7.03131C2.44916 8.11491 3.65491 9.53521 5.32993 10.9517C8.71528 13.8144 13.9707 16.6125 21.4074 16.6175H21.4097C28.8436 16.6175 34.1463 13.8223 37.5771 10.9758C39.2768 9.56561 40.5093 8.15151 41.3272 7.073C41.7372 6.5323 42.0466 6.07122 42.2616 5.73029C42.3692 5.55965 42.4536 5.41855 42.5153 5.31199C42.5462 5.25869 42.5715 5.21397 42.5913 5.17844L42.6168 5.1321L42.6265 5.11423L42.6306 5.10664L42.6325 5.10319C42.6333 5.10156 42.6342 5.09996 39.5782 3.46539L42.6342 5.09996C43.5369 3.41221 42.9006 1.3122 41.2128 0.409447C39.5319 -0.489652 37.442 0.137944 36.5333 1.81039C36.531 1.81443 36.5261 1.82316 36.5185 1.83635C36.498 1.87168 36.4583 1.93869 36.3989 2.03292C36.2798 2.22171 36.083 2.51738 35.8044 2.88479C35.2449 3.62249 34.3704 4.63 33.1514 5.64146C30.745 7.63799 26.9637 9.68593 21.4108 9.6862C15.8606 9.68219 12.1448 7.63721 9.80551 5.65906C8.61814 4.65498 7.77321 3.6553 7.23527 2.92404C6.96737 2.55987 6.77924 2.2672 6.66606 2.08101C6.60957 1.9881 6.57213 1.92232 6.55309 1.88813C6.54641 1.87613 6.54202 1.86806 6.53988 1.86411Z" fill="#E78722"/>
</svg>
