<svg width="28" height="28" viewBox="0 0 28 28" fill="none" xmlns="http://www.w3.org/2000/svg">
<path d="M20.0814 10.5629H16.0423V8.27123C16.0423 7.08873 16.1386 6.34394 17.8333 6.34394H19.9737V2.70019C18.9321 2.59248 17.8848 2.53977 16.8364 2.54206C13.7277 2.54206 11.459 4.44071 11.459 7.92633V10.5629H8.02148V15.1462L11.459 15.1451V25.4587H16.0423V15.1428L19.5554 15.1416L20.0814 10.5629Z" fill="black"/>
<path d="M20.0814 10.5629H16.0423V8.27123C16.0423 7.08873 16.1386 6.34394 17.8333 6.34394H19.9737V2.70019C18.9321 2.59248 17.8848 2.53977 16.8364 2.54206C13.7277 2.54206 11.459 4.44071 11.459 7.92633V10.5629H8.02148V15.1462L11.459 15.1451V25.4587H16.0423V15.1428L19.5554 15.1416L20.0814 10.5629Z" fill="url(#paint0_linear_17_3593)"/>
<defs>
<linearGradient id="paint0_linear_17_3593" x1="9.82836" y1="5.97549" x2="24.2887" y2="13.5852" gradientUnits="userSpaceOnUse">
<stop stop-color="#2AA4F4"/>
<stop offset="1" stop-color="#007AD9"/>
</linearGradient>
</defs>
</svg>
