<svg width="60" height="61" viewBox="0 0 60 61" fill="none" xmlns="http://www.w3.org/2000/svg">
<path d="M15.625 11.6694C18.0412 11.6694 20 13.6269 20 16.0444C20 18.4619 18.0412 20.4194 15.625 20.4194C13.2075 20.4194 11.25 18.4619 11.25 16.0444C11.25 13.6269 13.2075 11.6694 15.625 11.6694Z" fill="#1565C0"/>
<path d="M27.5 20.4194C24.7387 20.4194 22.5 22.6582 22.5 25.4194C22.5 28.1807 24.7387 30.4194 27.5 30.4194C30.2613 30.4194 32.5 28.1807 32.5 25.4194C32.5 22.6582 30.2613 20.4194 27.5 20.4194Z" fill="#E5852E"/>
<path d="M50.6362 39.2507L11.25 28.5719V17.9194C11.25 16.5394 10.13 15.4194 8.75 15.4194C7.37 15.4194 6.25 16.5394 6.25 17.9194V30.4194C6.25 31.5169 6.965 32.4857 8.015 32.8082L18.3512 36.9869L13.855 52.9194H27.4362L31.3975 40.0882L39.995 41.6219L49.365 44.0882C49.5788 44.1444 49.7925 44.1707 50.0025 44.1707C51.1112 44.1707 52.1238 43.4269 52.42 42.3057C52.7687 40.9694 51.9712 39.6032 50.6362 39.2507Z" fill="#E5852E"/>
<path d="M55 45.4194C51.25 45.4194 50 42.9194 50 42.9194C50 42.9194 48.75 45.4194 45 45.4194C41.25 45.4194 40 42.9194 40 42.9194C40 42.9194 38.75 45.4194 35 45.4194C31.25 45.4194 30 42.9194 30 42.9194C30 42.9194 28.75 45.4194 25 45.4194C21.25 45.4194 20 42.9194 20 42.9194C20 42.9194 18.75 45.4194 15 45.4194C11.25 45.4194 10 42.9194 10 42.9194C10 42.9194 8.75 45.4194 5 45.4194V55.4194H55V45.4194Z" fill="#7E8CCF"/>
<path d="M55 47.9194C51.25 47.9194 50 45.4194 50 45.4194C50 45.4194 48.75 47.9194 45 47.9194C41.25 47.9194 40 45.4194 40 45.4194C40 45.4194 38.75 47.9194 35 47.9194C31.25 47.9194 30 45.4194 30 45.4194C30 45.4194 28.75 47.9194 25 47.9194C21.25 47.9194 20 45.4194 20 45.4194C20 45.4194 18.75 47.9194 15 47.9194C11.25 47.9194 10 45.4194 10 45.4194C10 45.4194 8.75 47.9194 5 47.9194V55.4194H55V47.9194Z" fill="#C5CAE9"/>
</svg>
