<svg width="61" height="61" viewBox="0 0 61 61" fill="none" xmlns="http://www.w3.org/2000/svg">
<path d="M47.7871 39.3037C47.7871 48.9687 39.9521 56.8037 30.2871 56.8037C20.6221 56.8037 12.7871 48.9687 12.7871 39.3037C12.7871 28.0537 30.2871 4.30371 30.2871 4.30371C30.2871 4.30371 47.7871 28.0537 47.7871 39.3037Z" fill="#64B5F6"/>
<path d="M30.2871 50.5537C24.0834 50.5537 19.0371 45.5075 19.0371 39.3037C19.0371 37.9237 20.1571 36.8037 21.5371 36.8037C22.9171 36.8037 24.0371 37.9237 24.0371 39.3037C24.0371 42.75 26.8409 45.5537 30.2871 45.5537C31.6671 45.5537 32.7871 46.6737 32.7871 48.0537C32.7871 49.4337 31.6671 50.5537 30.2871 50.5537Z" fill="#BBDEFB"/>
<path d="M9.03711 36.8037H2.78711V41.8037H9.03711V36.8037Z" fill="#1976D2"/>
<path d="M9.99627 48.1627L5.30859 51.2876L8.08194 55.4479L12.7696 52.3231L9.99627 48.1627Z" fill="#1976D2"/>
<path d="M7.20009 23.4084L5.24805 28.0103L10.4046 30.1976L12.3566 25.5957L7.20009 23.4084Z" fill="#1976D2"/>
<path d="M57.7871 36.8037H51.5371V41.8037H57.7871V36.8037Z" fill="#1976D2"/>
<path d="M50.5819 48.1565L47.8086 52.3169L52.4963 55.4418L55.2696 51.2814L50.5819 48.1565Z" fill="#1976D2"/>
<path d="M53.3708 23.4056L48.2148 25.5942L50.1681 30.1956L55.324 28.0069L53.3708 23.4056Z" fill="#1976D2"/>
</svg>
