<svg width="61" height="61" viewBox="0 0 61 61" fill="none" xmlns="http://www.w3.org/2000/svg">
<g clip-path="url(#clip0_17_3264)">
<path d="M19.0371 37.4287C19.0371 39.845 17.0784 41.8037 14.6621 41.8037C12.2459 41.8037 10.2871 39.845 10.2871 37.4287C10.2871 35.0125 12.2459 33.0537 14.6621 33.0537C17.0784 33.0537 19.0371 35.0125 19.0371 37.4287ZM50.2871 37.4275C50.2871 35.0112 48.3284 33.0537 45.9121 33.0537C43.4959 33.0537 41.5371 35.0112 41.5371 37.4275C41.5371 39.845 43.4959 41.8037 45.9121 41.8037C48.3284 41.8037 50.2871 39.845 50.2871 37.4275Z" fill="#FFA726"/>
<path d="M14.0371 29.0263C14.0371 14.8888 46.5371 19.8213 46.5371 29.0263V40.1363C46.5371 49.3426 39.2621 56.8038 30.2871 56.8038C21.3121 56.8038 14.0371 49.3426 14.0371 40.1376V29.0263Z" fill="#FFB74D"/>
<path d="M37.7871 13.0537L36.5371 10.5537H30.2871C20.1084 10.5537 11.5371 15.115 11.5371 26.8037V34.3312L15.2871 38.0537V31.8037L37.7871 24.3037L45.2871 30.5537V38.0537L49.0371 34.3312V26.8037C49.0371 26.8037 49.0371 15.5537 37.7871 13.0537Z" fill="#424242"/>
<path d="M39.0371 37.4287C39.0371 38.465 38.1996 39.3037 37.1621 39.3037C36.1259 39.3037 35.2871 38.465 35.2871 37.4287C35.2871 36.3912 36.1259 35.5537 37.1621 35.5537C38.1996 35.5537 39.0371 36.3912 39.0371 37.4287ZM25.2871 37.4287C25.2871 36.3912 24.4484 35.5537 23.4121 35.5537C22.3746 35.5537 21.5371 36.3925 21.5371 37.4287C21.5371 38.465 22.3746 39.3037 23.4121 39.3037C24.4484 39.3037 25.2871 38.4662 25.2871 37.4287Z" fill="#784719"/>
<path d="M30.2509 21.5947C24.3521 21.5947 13.8809 25.141 11.5371 26.8035C12.1684 29.0235 12.8646 30.436 14.0371 33.0535C15.0646 34.771 15.1409 35.5535 16.4459 35.5535C17.3321 35.5535 18.2471 35.2072 19.4046 34.7635C21.3659 34.016 25.9571 33.0535 30.2859 33.0535C34.6096 33.0535 39.1634 34.016 41.0959 34.7622C42.2421 35.2047 43.1471 35.5535 44.0371 35.5535C45.3346 35.5535 45.4471 34.7547 46.5371 33.0535C47.4746 30.9835 48.3484 29.1822 49.0371 26.8035C47.2146 25.1797 36.2059 21.5947 30.2509 21.5947Z" fill="#E64A19"/>
<path d="M49.0371 26.8037V22.3987C49.0371 12.6187 40.0746 5.55371 30.2946 5.55371C20.5146 5.55371 11.5371 12.6187 11.5371 22.3987V26.9125C11.5371 26.9125 18.8284 23.0537 30.2871 23.0537C41.7459 23.0537 49.0371 26.8037 49.0371 26.8037Z" fill="#FF754C"/>
<path d="M19.0371 24.3036C22.1034 23.4923 25.6471 23.0536 30.2871 23.0536C34.8746 23.0536 38.4859 23.5036 41.5371 24.3036C41.6271 21.6598 40.5996 9.30357 30.2946 5.44482C19.6621 10.1373 19.0371 21.3473 19.0371 24.3036Z" fill="white"/>
<path d="M30.2871 4.30371C28.9059 4.30371 27.7871 4.86371 27.7871 5.55371C27.7871 6.24371 28.9059 6.80371 30.2871 6.80371C31.6684 6.80371 32.7871 6.24371 32.7871 5.55371C32.7871 4.86371 31.6684 4.30371 30.2871 4.30371Z" fill="#E64A19"/>
<path d="M29.2071 17.6337C29.4384 18.29 29.7309 18.7037 30.5809 18.7037C31.2446 18.7037 31.6134 18.475 31.9996 17.9912C32.3084 17.5925 32.6171 17.4487 33.0021 17.4487C33.5746 17.4487 34.0371 17.8337 34.0371 18.39C34.0371 18.6187 33.9596 18.8175 33.8371 19.015C33.3109 19.885 32.1546 20.5537 30.5809 20.5537C28.7434 20.5537 27.3859 19.7562 26.8296 18.175C26.6146 17.5337 26.5371 17.0337 26.5371 15.5537C26.5371 14.0737 26.6146 13.5737 26.8296 12.9325C27.3859 11.3525 28.7434 10.5537 30.5809 10.5537C32.1546 10.5537 33.3109 11.2212 33.8359 12.0925C33.9596 12.2925 34.0371 12.4912 34.0371 12.7175C34.0371 13.2725 33.5746 13.6587 33.0021 13.6587C32.6171 13.6587 32.3084 13.5137 31.9996 13.1162C31.6134 12.6312 31.2446 12.405 30.5809 12.405C29.7309 12.405 29.4384 12.8175 29.2071 13.475C29.0846 13.8287 29.0371 14.1712 29.0371 15.5537C29.0371 16.935 29.0846 17.2787 29.2071 17.6337Z" fill="#FFC107"/>
<path d="M33.6492 55.25L33.348 54.0425C32.9755 52.5562 32.788 51.0287 32.788 49.495V48.0537H27.788V49.495C27.788 51.0275 27.6005 52.555 27.228 54.0425L26.9267 55.25C26.7292 56.04 27.3255 56.8037 28.1392 56.8037H32.4367C33.2505 56.8037 33.8467 56.04 33.6492 55.25Z" fill="#7E8CCF"/>
<path d="M31.5371 50.5537H29.0371V51.8037H31.5371V50.5537Z" fill="#5F6EC4"/>
<path d="M30.2871 56.1787C31.3221 56.1787 32.1621 57.0187 32.1621 58.0537C32.1621 59.0887 31.3221 59.9287 30.2871 59.9287C29.2521 59.9287 28.4121 59.0887 28.4121 58.0537C28.4121 57.0187 29.2521 56.1787 30.2871 56.1787Z" stroke="#B3B3B3" stroke-width="2" stroke-miterlimit="10"/>
<path d="M29.0371 54.3037H31.5371V56.8037C31.5371 57.4937 30.9771 58.0537 30.2871 58.0537C29.5971 58.0537 29.0371 57.4937 29.0371 56.8037V54.3037Z" fill="#5F6EC4"/>
</g>
<defs>
<clipPath id="clip0_17_3264">
<rect width="60" height="60" fill="white" transform="translate(0.287109 0.553711)"/>
</clipPath>
</defs>
</svg>
