<svg width="61" height="61" viewBox="0 0 61 61" fill="none" xmlns="http://www.w3.org/2000/svg">
<path d="M43.4121 33.4106C41.3409 33.4106 39.6621 35.0894 39.6621 37.1606C39.6621 39.2319 41.3409 40.9106 43.4121 40.9106C45.4834 40.9106 47.1621 39.2319 47.1621 37.1606C47.1621 35.0894 45.4834 33.4106 43.4121 33.4106ZM17.1621 33.4106C15.0909 33.4106 13.4121 35.0894 13.4121 37.1606C13.4121 39.2319 15.0909 40.9106 17.1621 40.9106C19.2334 40.9106 20.9121 39.2319 20.9121 37.1606C20.9121 35.0894 19.2334 33.4106 17.1621 33.4106Z" fill="#FFCC80"/>
<path d="M44.3496 30.5984C44.3496 18.6921 16.2246 22.8171 16.2246 30.5984C16.2246 32.2859 16.2246 38.2859 16.2246 39.9734C16.2246 47.7546 22.5059 54.0359 30.2871 54.0359C38.0684 54.0359 44.3496 47.7546 44.3496 39.9734C44.3496 38.2859 44.3496 32.2859 44.3496 30.5984Z" fill="#FFCC80"/>
<path d="M30.2871 16.5356C22.0371 16.5356 15.2871 23.2856 15.2871 31.5356C15.2871 32.6606 15.2871 34.8169 15.2871 34.8169L17.2559 35.3794V30.5981L35.5371 24.6919L43.2246 30.5981V35.3794L45.1934 34.8169C45.1934 34.8169 45.1934 32.6606 45.1934 31.5356C45.2871 24.5044 40.2246 16.5356 30.2871 16.5356Z" fill="#FFCC80"/>
<path d="M28.5098 39.9045C28.5098 34.5933 32.6136 34.9158 32.6136 31.6958C32.6136 30.8908 32.3723 29.282 30.2798 29.282C28.0261 29.282 27.8661 31.1333 27.8661 31.5358H24.8086C24.8086 30.7308 25.1311 26.707 30.2811 26.707C35.5123 26.707 35.6723 30.8108 35.6723 31.5358C35.6723 35.4795 31.3273 36.042 31.3273 39.8245H28.5111V39.9045H28.5098ZM28.2686 43.8483C28.2686 43.607 28.3486 42.1583 29.9586 42.1583C31.5686 42.1583 31.7286 43.607 31.7286 43.8483C31.7286 44.3308 31.4873 45.4583 29.9586 45.4583C28.5098 45.4583 28.2686 44.3308 28.2686 43.8483Z" fill="#0277BD"/>
<path d="M48.0874 6.53564C42.7312 6.53564 38.3887 10.4431 38.3887 15.2644C38.3887 17.5519 39.3749 19.6269 40.9737 21.1844C40.9712 21.3919 40.9749 23.3469 38.3887 24.6394C38.3887 24.6394 39.0349 25.2856 40.6512 25.2856C44.2074 25.2856 45.4999 23.6694 45.4999 23.6694H45.4987C46.3237 23.8744 47.1887 23.9931 48.0849 23.9931C53.4412 23.9931 57.7837 20.0856 57.7837 15.2644C57.7837 10.4431 53.4437 6.53564 48.0874 6.53564Z" fill="#2196F3"/>
<path d="M12.4859 6.53564C17.8421 6.53564 22.1846 10.4431 22.1846 15.2644C22.1846 17.5519 21.1984 19.6269 19.5996 21.1844C19.6021 21.3919 19.5984 23.3469 22.1846 24.6394C22.1846 24.6394 21.5384 25.2856 19.9221 25.2856C16.3659 25.2856 15.0734 23.6694 15.0734 23.6694H15.0746C14.2496 23.8744 13.3846 23.9931 12.4884 23.9931C7.12961 23.9931 2.78711 20.0844 2.78711 15.2644C2.78711 10.4444 7.12961 6.53564 12.4859 6.53564Z" fill="#FF5722"/>
<path d="M47.5899 19.553L42.4199 14.383L44.1874 12.6155L47.5899 16.018L52.4199 11.188L54.1874 12.9555L47.5899 19.553Z" fill="#BBDEFB"/>
<path d="M16.7945 18.0687L9.29492 10.5688L7.52712 12.3366L15.0267 19.8365L16.7945 18.0687Z" fill="#FFCCBC"/>
<path d="M16.797 12.3366L15.0293 10.5688L7.52941 18.0685L9.29715 19.8363L16.797 12.3366Z" fill="#FFCCBC"/>
</svg>
