<svg width="60" height="61" viewBox="0 0 60 61" fill="none" xmlns="http://www.w3.org/2000/svg">
<path d="M55 44.1694C51.25 44.1694 50 41.6694 50 41.6694C50 41.6694 48.75 44.1694 45 44.1694C41.25 44.1694 40 41.6694 40 41.6694C40 41.6694 38.75 44.1694 35 44.1694C31.25 44.1694 30 41.6694 30 41.6694C30 41.6694 28.75 44.1694 25 44.1694C21.25 44.1694 20 41.6694 20 41.6694C20 41.6694 18.75 44.1694 15 44.1694C11.25 44.1694 10 41.6694 10 41.6694C10 41.6694 8.75 44.1694 5 44.1694V54.1694H10H50H55V44.1694Z" fill="#1E88E5"/>
<path d="M55 49.1694C51.25 49.1694 50 46.6694 50 46.6694C50 46.6694 48.75 49.1694 45 49.1694C41.25 49.1694 40 46.6694 40 46.6694C40 46.6694 38.75 49.1694 35 49.1694C31.25 49.1694 30 46.6694 30 46.6694C30 46.6694 28.75 49.1694 25 49.1694C21.25 49.1694 20 46.6694 20 46.6694C20 46.6694 18.75 49.1694 15 49.1694C11.25 49.1694 10 46.6694 10 46.6694C10 46.6694 8.75 49.1694 5 49.1694V54.1694H10H50H55V49.1694Z" fill="#90CAF9"/>
<path d="M22.5 41.6694H5V54.1694H25V44.1694C25 42.7944 23.875 41.6694 22.5 41.6694Z" fill="#DD2C00"/>
<path d="M42.5002 14.1694C42.5002 11.4194 44.7502 9.16943 47.5002 9.16943C50.2502 9.16943 52.5002 11.4194 52.5002 14.1694C52.5002 16.9194 50.2502 19.1694 47.5002 19.1694C44.7502 19.1694 42.5002 16.9194 42.5002 14.1694ZM39.6252 15.0444C39.5002 14.9194 39.3752 14.7944 39.2502 14.6694C38.2502 13.6694 36.7502 13.2944 35.2502 13.6694L20.2502 17.4194C17.8752 18.0444 16.5002 20.4194 17.1252 22.6694C17.1252 22.7944 17.2502 22.9194 17.2502 23.0444C17.2502 23.1694 17.2502 23.2944 17.3752 23.5444L17.5002 23.7944C17.7502 24.1694 18.0002 24.5444 18.3752 24.9194L23.5002 31.6694L19.3752 37.9194C18.6252 39.0444 18.8752 40.6694 20.1252 41.4194C20.5002 41.6694 21.0002 41.7944 21.5002 41.7944C22.2502 41.7944 23.1252 41.4194 23.6252 40.6694L28.6252 33.1694C29.1252 32.4194 29.1252 31.4194 28.7502 30.5444L25.7502 25.2944L39.0002 22.0444L47.2502 32.1694C47.7502 32.7944 48.5002 33.0444 49.2502 33.0444C49.7502 33.0444 50.3752 32.9194 50.8752 32.5444C52.0002 31.6694 52.1252 30.0444 51.2502 29.0444L39.6252 15.0444Z" fill="#FFB74D"/>
<path d="M25.3751 25.0444L22.8751 16.6694L20.1252 17.4194C17.7502 18.0444 16.3752 20.4194 17.0002 22.6694C17.0002 22.7944 17.1252 22.9194 17.1252 23.0444C17.1252 23.1694 17.1252 23.2944 17.2502 23.5444L25.3751 25.0444Z" fill="#2196F3"/>
<path d="M3.7832 7.77002L7.31868 4.23442L56.1983 53.1123L52.6628 56.6479L3.7832 7.77002Z" fill="#37474F"/>
</svg>
