<svg width="98" height="13" viewBox="0 0 98 13" fill="none" xmlns="http://www.w3.org/2000/svg">
<path fill-rule="evenodd" clip-rule="evenodd" d="M37.8619 1.45899C37.2084 0.138779 35.6638 -0.380991 34.4026 0.298562C33.1361 0.981014 32.6352 2.61461 33.2837 3.9473L35.5769 2.71161C33.2837 3.9473 33.2844 3.94858 33.285 3.94989L33.2864 3.95266L33.2893 3.95874L33.2964 3.97301L33.3149 4.00984C33.3292 4.03801 33.3474 4.07339 33.3697 4.11549C33.4142 4.19964 33.475 4.31084 33.5526 4.44518C33.7076 4.71357 33.931 5.07613 34.2281 5.5011C34.8207 6.34876 35.7171 7.45981 36.9624 8.56785C39.4791 10.8073 43.386 12.9961 48.9146 13H48.9163C54.4428 13 58.3849 10.8135 60.9354 8.5867C62.199 7.48359 63.1152 6.3774 63.7233 5.53371C64.0281 5.11075 64.2581 4.75006 64.418 4.48336C64.498 4.34987 64.5606 4.2395 64.6066 4.15614C64.6295 4.11445 64.6483 4.07946 64.663 4.05167L64.682 4.01542L64.6892 4.00144L64.6923 3.9955L64.6936 3.9928C64.6943 3.99153 64.6949 3.99028 62.4231 2.71161L64.6949 3.99028C65.366 2.67001 64.893 1.02725 63.6383 0.32106C62.3886 -0.382273 60.835 0.108672 60.1594 1.41697C60.1578 1.42013 60.1541 1.42696 60.1484 1.43727C60.1332 1.46491 60.1037 1.51733 60.0595 1.59104C59.971 1.73873 59.8247 1.97002 59.6175 2.25743C59.2016 2.8345 58.5515 3.62264 57.6452 4.41387C55.8563 5.97569 53.0452 7.57772 48.9171 7.57792C44.7911 7.57479 42.0286 5.97508 40.2896 4.42764C39.4069 3.64219 38.7787 2.86017 38.3788 2.28814C38.1797 2.00326 38.0398 1.77431 37.9557 1.62867C37.9137 1.55599 37.8858 1.50453 37.8717 1.47778C37.8667 1.46839 37.8634 1.46208 37.8619 1.45899Z" fill="#E78722"/>
<path fill-rule="evenodd" clip-rule="evenodd" d="M70.0128 1.45899C69.3391 0.138779 67.7464 -0.380991 66.4462 0.298563C65.1403 0.981014 64.6239 2.61461 65.2925 3.9473L67.6569 2.71161C65.2925 3.9473 65.2932 3.94858 65.2938 3.94989L65.2952 3.95267L65.2983 3.95874L65.3056 3.97301L65.3247 4.00984C65.3394 4.03801 65.3582 4.07339 65.3812 4.11549C65.4271 4.19964 65.4897 4.31084 65.5697 4.44518C65.7296 4.71357 65.9599 5.07613 66.2663 5.5011C66.8773 6.34876 67.8015 7.45981 69.0854 8.56785C71.6802 10.8073 75.7084 12.9961 81.4086 13H81.4104C87.1083 13 91.1741 10.8136 93.8052 8.58733C95.1087 7.48443 96.0542 6.37845 96.6817 5.53494C96.9963 5.11206 97.2337 4.75145 97.3987 4.48483C97.4813 4.35138 97.546 4.24104 97.5934 4.15771C97.6171 4.11603 97.6365 4.08106 97.6517 4.05329L97.6713 4.01706L97.6787 4.00309L97.6818 3.99716L97.6833 3.99446C97.6839 3.99319 97.6846 3.99194 95.3431 2.71161L97.6846 3.99194C98.3774 2.67217 97.8908 1.02906 96.5976 0.321949C95.3096 -0.382347 93.7073 0.107578 93.0099 1.41558C93.0081 1.41885 93.0043 1.42561 92.9986 1.4357C92.9829 1.46337 92.9524 1.51583 92.9068 1.58957C92.8153 1.73734 92.6642 1.96871 92.4503 2.2562C92.0209 2.83345 91.3497 3.6218 90.4144 4.41324C88.5679 5.97558 85.6676 7.57772 81.4112 7.57792C77.1571 7.57479 74.3089 5.97508 72.5159 4.42764C71.6057 3.64219 70.9581 2.86017 70.5458 2.28813C70.3404 2.00326 70.1962 1.77431 70.1095 1.62867C70.0662 1.55598 70.0375 1.50453 70.0229 1.47778C70.0178 1.46839 70.0144 1.46208 70.0128 1.45899Z" fill="#E78722"/>
<path fill-rule="evenodd" clip-rule="evenodd" d="M5.01379 1.45899C4.33994 0.138779 2.747 -0.380991 1.44646 0.298563C0.140374 0.981014 -0.376225 2.61461 0.292602 3.9473L2.65748 2.71161C0.292602 3.9473 0.293247 3.94858 0.293906 3.94989L0.295303 3.95267L0.298376 3.95874L0.305648 3.97301L0.324723 4.00984C0.339462 4.03801 0.358275 4.07339 0.381245 4.11549C0.427167 4.19964 0.489812 4.31084 0.569847 4.44518C0.729748 4.71357 0.960131 5.07613 1.26651 5.5011C1.87764 6.34876 2.80203 7.45981 4.08618 8.56785C6.68155 10.8073 10.7106 12.9961 16.4119 13H16.4137C22.1129 13 26.1781 10.8135 28.8084 8.5867C30.1114 7.48359 31.0563 6.3774 31.6834 5.53371C31.9977 5.11075 32.2349 4.75006 32.3998 4.48336C32.4823 4.34987 32.5469 4.2395 32.5943 4.15614C32.6179 4.11445 32.6373 4.07946 32.6525 4.05167L32.6721 4.01542L32.6795 4.00144L32.6826 3.9955L32.6841 3.9928C32.6847 3.99153 32.6854 3.99028 30.3426 2.71161L32.6854 3.99028C33.3775 2.67001 32.8896 1.02725 31.5957 0.321059C30.307 -0.382273 28.7048 0.108672 28.0082 1.41697C28.0064 1.42013 28.0026 1.42696 27.9968 1.43727C27.9811 1.46491 27.9507 1.51733 27.9051 1.59104C27.8138 1.73873 27.6629 1.97002 27.4493 2.25743C27.0204 2.8345 26.35 3.62264 25.4154 4.41387C23.5706 5.97569 20.6716 7.57772 16.4145 7.57792C12.1595 7.57479 9.31076 5.97508 7.51737 4.42764C6.60708 3.64219 5.95931 2.86017 5.5469 2.28813C5.34152 2.00326 5.19729 1.77431 5.11052 1.62867C5.06721 1.55598 5.03851 1.50453 5.02391 1.47778C5.01879 1.46839 5.01542 1.46208 5.01379 1.45899Z" fill="#E78722"/>
</svg>
