<svg width="159" height="159" viewBox="0 0 159 159" fill="none" xmlns="http://www.w3.org/2000/svg">
<rect x="1.5" y="1.5" width="156" height="156" rx="78" fill="white" stroke="white" stroke-width="3"/>
<path d="M62.9375 102.803C62.9375 99.2127 69.5625 89.4375 69.5625 89.4375C69.5625 89.4375 76.1875 99.2127 76.1875 102.803C76.1875 106.397 73.2212 109.312 69.5625 109.312C65.9022 109.312 62.9375 106.397 62.9375 102.803ZM84.4688 102.803C84.4688 99.2127 91.0938 89.4375 91.0938 89.4375C91.0938 89.4375 97.7188 99.2127 97.7188 102.803C97.7188 106.397 94.7524 109.312 91.0938 109.312C87.4334 109.312 84.4688 106.397 84.4688 102.803Z" fill="#64B5F6"/>
<path d="M51.3438 63.0534C51.3438 59.4627 57.9688 49.6875 57.9688 49.6875C57.9688 49.6875 64.5938 59.4627 64.5938 63.0534C64.5938 66.6475 61.6274 69.5625 57.9688 69.5625C54.3084 69.5625 51.3438 66.6475 51.3438 63.0534ZM72.875 63.0534C72.875 59.4627 79.5 49.6875 79.5 49.6875C79.5 49.6875 86.125 59.4627 86.125 63.0534C86.125 66.6475 83.1587 69.5625 79.5 69.5625C75.8397 69.5625 72.875 66.6475 72.875 63.0534ZM94.4063 63.0534C94.4063 59.4627 101.031 49.6875 101.031 49.6875C101.031 49.6875 107.656 59.4627 107.656 63.0534C107.656 66.6475 104.69 69.5625 101.031 69.5625C97.3709 69.5625 94.4063 66.6475 94.4063 63.0534Z" fill="#1565C0"/>
<path d="M49.6875 77.8438H109.312V82.8125H49.6875V77.8438Z" fill="#2196F3"/>
</svg>
