<svg width="160" height="159" viewBox="0 0 160 159" fill="none" xmlns="http://www.w3.org/2000/svg">
<rect x="1.83984" y="1.49951" width="156" height="156" rx="78" fill="white" stroke="white" stroke-width="3"/>
<path d="M90.256 99.3745H69.9023V96.062H90.256C92.7321 96.062 94.7461 94.048 94.7461 91.5703V69.562H98.0586V91.5719C98.0586 95.8749 94.5589 99.3745 90.256 99.3745Z" fill="#B0BEC5"/>
<path d="M96.4023 46.3745L101.272 54.4951L110.456 52.1962L108.157 61.3801L116.277 66.2495L108.157 71.1189L110.456 80.3028L101.272 78.0039L96.4023 86.1245L91.533 78.0039L82.3491 80.3028L84.6479 71.1189L76.5273 66.2495L84.6479 61.3801L82.3491 52.1962L91.533 54.4951L96.4023 46.3745Z" fill="#7755FF"/>
<path d="M70.5466 107.656H61.6211V87.7808H70.5466C73.8492 87.7808 76.5273 90.4589 76.5273 93.7615V101.673C76.5273 104.978 73.8492 107.656 70.5466 107.656Z" fill="#90A4AE"/>
<path d="M61.6211 86.1245H56.6523V109.312H61.6211V86.1245Z" fill="#B0BEC5"/>
<path d="M48.3711 94.4058H56.6523V91.0933H48.3711C47.4568 91.0933 46.7148 91.8353 46.7148 92.7495C46.7148 93.6638 47.4568 94.4058 48.3711 94.4058Z" fill="#F9A825"/>
<path d="M48.3711 104.343H56.6523V101.031H48.3711C47.4568 101.031 46.7148 101.773 46.7148 102.687C46.7148 103.601 47.4568 104.343 48.3711 104.343Z" fill="#F9A825"/>
<path d="M96.4023 77.8433C102.805 77.8433 107.996 72.6526 107.996 66.2495C107.996 59.8465 102.805 54.6558 96.4023 54.6558C89.9993 54.6558 84.8086 59.8465 84.8086 66.2495C84.8086 72.6526 89.9993 77.8433 96.4023 77.8433Z" fill="#5C3DD9"/>
<path d="M68.2461 99.3745C69.1608 99.3745 69.9023 98.633 69.9023 97.7183C69.9023 96.8035 69.1608 96.062 68.2461 96.062C67.3314 96.062 66.5898 96.8035 66.5898 97.7183C66.5898 98.633 67.3314 99.3745 68.2461 99.3745Z" fill="#78909C"/>
</svg>
