<svg width="90" height="89" viewBox="0 0 90 89" fill="none" xmlns="http://www.w3.org/2000/svg">
<path d="M34.3552 13.953C43.1102 10.6615 41.4385 32.365 46.0781 32.0752C50.7178 31.7853 52.2925 11.5721 59.1984 15.4883C66.9241 19.8695 56.1066 29.1648 59.1436 32.6024C62.18 36.0393 72.8275 26.1632 75.4771 33.9169C78.2295 41.973 61.8691 39.2623 61.5296 43.8375C61.1901 48.4127 75.3756 50.0074 73.656 58.4446C71.9386 66.8693 66.3576 61.5426 61.8075 62.5223C55.3826 63.9058 64.1153 73.5309 54.9238 76.6803C47.6757 79.1633 48.823 67.1802 44.1885 66.8944C39.5545 66.6079 37.7048 77.0364 29.9585 73.1675C22.0217 69.2028 33.2654 59.9594 30.229 56.5224C27.192 53.0849 16.6791 60.6378 13.6803 54.7383C9.96609 47.4319 24.139 46.3861 24.4785 41.8109C24.8179 37.2357 12.3156 37.2317 15.5009 30.2112C19.3658 21.693 34.0008 37.4177 37.8708 34.8406C41.7409 32.2623 26.5558 16.8856 34.3552 13.953Z" fill="#4A93FF"/>
<path d="M35.0529 51.1595C34.2849 51.1595 33.6182 51.0528 33.0529 50.8395C32.4876 50.6155 32.0182 50.3115 31.6449 49.9275C31.2822 49.5435 31.0049 49.0955 30.8129 48.5835C30.6209 48.0715 30.5089 47.5222 30.4769 46.9355C30.4662 46.6475 30.4556 46.3222 30.4449 45.9595C30.4449 45.5862 30.4449 45.2128 30.4449 44.8395C30.4556 44.4555 30.4662 44.1142 30.4769 43.8155C30.5089 43.2288 30.6209 42.6848 30.8129 42.1835C31.0156 41.6715 31.3036 41.2288 31.6769 40.8555C32.0609 40.4715 32.5302 40.1728 33.0849 39.9595C33.6502 39.7462 34.3062 39.6395 35.0529 39.6395C35.8102 39.6395 36.4662 39.7462 37.0209 39.9595C37.5756 40.1728 38.0396 40.4715 38.4129 40.8555C38.7969 41.2288 39.0902 41.6715 39.2929 42.1835C39.4956 42.6848 39.6076 43.2288 39.6289 43.8155C39.6502 44.1142 39.6609 44.4555 39.6609 44.8395C39.6716 45.2128 39.6716 45.5862 39.6609 45.9595C39.6609 46.3222 39.6502 46.6475 39.6289 46.9355C39.6076 47.5222 39.4956 48.0715 39.2929 48.5835C39.1009 49.0955 38.8182 49.5435 38.4449 49.9275C38.0822 50.3115 37.6182 50.6155 37.0529 50.8395C36.4982 51.0528 35.8316 51.1595 35.0529 51.1595ZM35.0529 48.8395C35.6076 48.8395 36.0076 48.6635 36.2529 48.3115C36.5089 47.9488 36.6422 47.4635 36.6529 46.8555C36.6742 46.5462 36.6849 46.2208 36.6849 45.8795C36.6956 45.5382 36.6956 45.1968 36.6849 44.8555C36.6849 44.5142 36.6742 44.1995 36.6529 43.9115C36.6422 43.3248 36.5089 42.8502 36.2529 42.4875C36.0076 42.1248 35.6076 41.9382 35.0529 41.9275C34.4982 41.9382 34.0982 42.1248 33.8529 42.4875C33.6076 42.8502 33.4742 43.3248 33.4529 43.9115C33.4422 44.1995 33.4316 44.5142 33.4209 44.8555C33.4209 45.1968 33.4209 45.5382 33.4209 45.8795C33.4316 46.2208 33.4422 46.5462 33.4529 46.8555C33.4742 47.4635 33.6129 47.9488 33.8689 48.3115C34.1249 48.6635 34.5196 48.8395 35.0529 48.8395ZM45.7039 51.1595C44.8719 51.1595 44.1626 51.0635 43.5759 50.8715C42.9892 50.6688 42.5092 50.4128 42.1359 50.1035C41.7626 49.7835 41.4852 49.4475 41.3039 49.0955C41.1226 48.7328 41.0266 48.3862 41.0159 48.0555C41.0159 47.9595 41.0479 47.8795 41.1119 47.8155C41.1866 47.7515 41.2719 47.7195 41.3679 47.7195H43.4479C43.5759 47.7195 43.6772 47.7462 43.7519 47.7995C43.8266 47.8422 43.8959 47.9168 43.9599 48.0235C44.0452 48.2262 44.1679 48.3915 44.3279 48.5195C44.4986 48.6475 44.7012 48.7382 44.9359 48.7915C45.1706 48.8342 45.4266 48.8555 45.7039 48.8555C46.2479 48.8555 46.6692 48.7328 46.9679 48.4875C47.2772 48.2315 47.4319 47.8848 47.4319 47.4475C47.4319 46.9888 47.2879 46.6635 46.9999 46.4715C46.7119 46.2688 46.3012 46.1675 45.7679 46.1675H43.9919C43.8746 46.1675 43.7786 46.1302 43.7039 46.0555C43.6292 45.9808 43.5919 45.8848 43.5919 45.7675V44.8715C43.5919 44.7435 43.6186 44.6315 43.6719 44.5355C43.7252 44.4395 43.7839 44.3702 43.8479 44.3275L46.4719 42.1035H42.0239C41.9172 42.1035 41.8212 42.0662 41.7359 41.9915C41.6612 41.9168 41.6239 41.8208 41.6239 41.7035V40.1995C41.6239 40.0822 41.6612 39.9862 41.7359 39.9115C41.8212 39.8368 41.9172 39.7995 42.0239 39.7995H49.3839C49.5012 39.7995 49.5972 39.8368 49.6719 39.9115C49.7572 39.9862 49.7999 40.0822 49.7999 40.1995V41.5595C49.7999 41.6768 49.7732 41.7835 49.7199 41.8795C49.6666 41.9648 49.6079 42.0342 49.5439 42.0875L47.1119 44.3435L47.2239 44.3755C47.8319 44.4502 48.3759 44.6155 48.8559 44.8715C49.3359 45.1168 49.7146 45.4635 49.9919 45.9115C50.2692 46.3595 50.4079 46.9302 50.4079 47.6235C50.4079 48.3488 50.1999 48.9782 49.7839 49.5115C49.3786 50.0342 48.8239 50.4395 48.1199 50.7275C47.4159 51.0155 46.6106 51.1595 45.7039 51.1595Z" fill="white"/>
</svg>
