<svg width="160" height="159" viewBox="0 0 160 159" fill="none" xmlns="http://www.w3.org/2000/svg">
<rect x="2.16992" y="1.5" width="156" height="156" rx="78" fill="white" stroke="white" stroke-width="3"/>
<g clip-path="url(#clip0_27_5915)">
<path d="M65.2637 96.0625H61.9512V53H55.3262V56.3125H52.0137V51.3438C52.0137 50.35 52.6762 49.6875 53.6699 49.6875H63.6074C64.6012 49.6875 65.2637 50.35 65.2637 51.3438V96.0625Z" fill="#90A4AE"/>
<path d="M55.3262 56.3125H58.6387V82.8125H55.3262V56.3125Z" fill="#C7D1D6"/>
<path d="M49.1973 56.3125H55.491V82.8125H49.1973V56.3125Z" fill="#DEE4E7"/>
<path d="M47.0449 82.8125H60.2949V107.656H47.0449V82.8125Z" fill="#90A4AE"/>
<path d="M43.7324 101.031H53.6699V107.656H43.7324V101.031Z" fill="#C9D3D8"/>
<path d="M53.6699 101.031H56.9824V107.656H53.6699V101.031Z" fill="#B0BEC5"/>
<path d="M50.3574 84.4688C47.7218 84.4688 45.1942 85.5157 43.3305 87.3794C41.4669 89.243 40.4199 91.7707 40.4199 94.4062C40.4199 97.0418 41.4669 99.5695 43.3305 101.433C45.1942 103.297 47.7218 104.344 50.3574 104.344C52.993 104.344 55.5207 103.297 57.3843 101.433C59.2479 99.5695 60.2949 97.0418 60.2949 94.4062C60.2949 91.7707 59.2479 89.243 57.3843 87.3794C55.5207 85.5157 52.993 84.4688 50.3574 84.4688Z" fill="#29B6F6"/>
<path d="M50.3574 87.7812C48.6004 87.7812 46.9153 88.4792 45.6728 89.7217C44.4304 90.9641 43.7324 92.6492 43.7324 94.4062C43.7324 96.1633 44.4304 97.8484 45.6728 99.0908C46.9153 100.333 48.6004 101.031 50.3574 101.031C52.1145 101.031 53.7996 100.333 55.042 99.0908C56.2844 97.8484 56.9824 96.1633 56.9824 94.4062C56.9824 92.6492 56.2844 90.9641 55.042 89.7217C53.7996 88.4792 52.1145 87.7812 50.3574 87.7812V87.7812Z" fill="#84D5F9"/>
<path d="M50.3574 87.7812C49.6985 87.7812 49.0666 88.043 48.6007 88.5089C48.1348 88.9748 47.873 89.6067 47.873 90.2656C47.873 90.9245 48.1348 91.5564 48.6007 92.0223C49.0666 92.4883 49.6985 92.75 50.3574 92.75C51.0163 92.75 51.6482 92.4883 52.1141 92.0223C52.5801 91.5564 52.8418 90.9245 52.8418 90.2656C52.8418 89.6067 52.5801 88.9748 52.1141 88.5089C51.6482 88.043 51.0163 87.7812 50.3574 87.7812Z" fill="#B1E4FC"/>
<path d="M85.1387 96.0625H81.8262V57.9688H75.2012V61.2813H71.8887V56.3125C71.8887 55.3188 72.5512 54.6562 73.5449 54.6562H83.4824C84.4762 54.6562 85.1387 55.3188 85.1387 56.3125V96.0625Z" fill="#90A4AE"/>
<path d="M75.2012 61.2812H78.5137V82.8125H75.2012V61.2812Z" fill="#C7D1D6"/>
<path d="M69.0723 61.2812H75.366V82.8125H69.0723V61.2812Z" fill="#DEE4E7"/>
<path d="M66.9199 82.8125H80.1699V107.656H66.9199V82.8125Z" fill="#90A4AE"/>
<path d="M70.2324 84.4688C67.5968 84.4688 65.0692 85.5157 63.2055 87.3794C61.3419 89.243 60.2949 91.7707 60.2949 94.4062C60.2949 97.0418 61.3419 99.5695 63.2055 101.433C65.0692 103.297 67.5968 104.344 70.2324 104.344C72.868 104.344 75.3957 103.297 77.2593 101.433C79.1229 99.5695 80.1699 97.0418 80.1699 94.4062C80.1699 91.7707 79.1229 89.243 77.2593 87.3794C75.3957 85.5157 72.868 84.4688 70.2324 84.4688Z" fill="#29B6F6"/>
<path d="M70.2324 87.7812C68.4754 87.7812 66.7903 88.4792 65.5478 89.7217C64.3054 90.9641 63.6074 92.6492 63.6074 94.4062C63.6074 96.1633 64.3054 97.8484 65.5478 99.0908C66.7903 100.333 68.4754 101.031 70.2324 101.031C71.9895 101.031 73.6746 100.333 74.917 99.0908C76.1594 97.8484 76.8574 96.1633 76.8574 94.4062C76.8574 92.6492 76.1594 90.9641 74.917 89.7217C73.6746 88.4792 71.9895 87.7812 70.2324 87.7812Z" fill="#84D5F9"/>
<path d="M70.2324 87.7812C69.5735 87.7812 68.9416 88.043 68.4757 88.5089C68.0098 88.9748 67.748 89.6067 67.748 90.2656C67.748 90.9245 68.0098 91.5564 68.4757 92.0223C68.9416 92.4883 69.5735 92.75 70.2324 92.75C70.8913 92.75 71.5232 92.4883 71.9891 92.0223C72.455 91.5564 72.7168 90.9245 72.7168 90.2656C72.7168 89.6067 72.455 88.9748 71.9891 88.5089C71.5232 88.043 70.8913 87.7812 70.2324 87.7812Z" fill="#B1E4FC"/>
<path d="M105.014 96.0625H101.701V53H95.0762V56.3125H91.7637V51.3438C91.7637 50.35 92.4262 49.6875 93.4199 49.6875H103.357C104.351 49.6875 105.014 50.35 105.014 51.3438V96.0625Z" fill="#90A4AE"/>
<path d="M95.0762 56.3125H98.3887V82.8125H95.0762V56.3125Z" fill="#C7D1D6"/>
<path d="M88.9473 56.3125H95.241V82.8125H88.9473V56.3125Z" fill="#DEE4E7"/>
<path d="M86.7949 82.8125H100.045V107.656H86.7949V82.8125Z" fill="#90A4AE"/>
<path d="M90.1074 84.4688C87.4718 84.4688 84.9442 85.5157 83.0805 87.3794C81.2169 89.243 80.1699 91.7707 80.1699 94.4062C80.1699 97.0418 81.2169 99.5695 83.0805 101.433C84.9442 103.297 87.4718 104.344 90.1074 104.344C92.743 104.344 95.2707 103.297 97.1343 101.433C98.9979 99.5695 100.045 97.0418 100.045 94.4062C100.045 91.7707 98.9979 89.243 97.1343 87.3794C95.2707 85.5157 92.743 84.4688 90.1074 84.4688V84.4688Z" fill="#29B6F6"/>
<path d="M90.1074 87.7812C88.3504 87.7812 86.6653 88.4792 85.4228 89.7217C84.1804 90.9641 83.4824 92.6492 83.4824 94.4062C83.4824 96.1633 84.1804 97.8484 85.4228 99.0908C86.6653 100.333 88.3504 101.031 90.1074 101.031C91.8645 101.031 93.5496 100.333 94.792 99.0908C96.0344 97.8484 96.7324 96.1633 96.7324 94.4062C96.7324 92.6492 96.0344 90.9641 94.792 89.7217C93.5496 88.4792 91.8645 87.7812 90.1074 87.7812Z" fill="#84D5F9"/>
<path d="M90.1074 87.7812C89.4485 87.7812 88.8166 88.043 88.3507 88.5089C87.8848 88.9748 87.623 89.6067 87.623 90.2656C87.623 90.9245 87.8848 91.5564 88.3507 92.0223C88.8166 92.4883 89.4485 92.75 90.1074 92.75C90.7663 92.75 91.3982 92.4883 91.8641 92.0223C92.33 91.5564 92.5918 90.9245 92.5918 90.2656C92.5918 89.6067 92.33 88.9748 91.8641 88.5089C91.3982 88.043 90.7663 87.7812 90.1074 87.7812Z" fill="#B1E4FC"/>
<path d="M100.045 82.8125H119.92V107.656H100.045V82.8125Z" fill="#C9D3D8"/>
<path d="M116.607 84.4688H119.92V107.656H116.607V84.4688Z" fill="#B0BEC5"/>
<path d="M114.951 59.625H119.92V82.8125H114.951V59.625ZM100.045 89.4375H119.92V92.75H100.045V89.4375Z" fill="#FF5722"/>
<path d="M114.951 76.1875H119.92V79.5H114.951V76.1875ZM114.951 69.5625H119.92V72.875H114.951V69.5625ZM114.951 62.9375H119.92V66.25H114.951V62.9375Z" fill="#FFAB91"/>
<path d="M100.045 82.8125H119.92V86.125H100.045V82.8125ZM40.4199 107.656H119.92V110.969H40.4199V107.656Z" fill="#90A4AE"/>
</g>
<defs>
<clipPath id="clip0_27_5915">
<rect width="79.5" height="79.5" fill="white" transform="translate(40.4199 39.75)"/>
</clipPath>
</defs>
</svg>
