<svg width="78" height="77" viewBox="0 0 78 77" fill="none" xmlns="http://www.w3.org/2000/svg">
<path d="M63.8815 60.1669C57.9452 67.3949 48.5412 47.7632 44.668 50.3341C40.7949 52.9049 49.5377 71.1975 41.599 71.2588C32.7177 71.3275 37.4383 57.8687 33.0894 56.4102C28.7413 54.952 24.4583 68.8287 18.2869 63.4386C11.8752 57.838 27.3991 52.0053 25.4055 47.8733C23.4119 43.7414 10.3296 49.453 7.60018 41.2864C4.87511 33.1318 12.3718 34.9542 15.8224 31.8308C20.6948 27.4201 8.31946 23.4509 14.7048 16.1277C19.7404 10.3533 24.7383 21.3047 28.8949 19.2349C33.0512 17.166 29.4389 7.20988 38.0818 6.68727C46.9377 6.15239 41.822 19.7793 46.1701 21.2375C50.519 22.696 55.847 10.8986 61.3937 14.5083C68.2636 18.9787 56.5124 26.9708 58.506 31.1028C60.4996 35.2348 71.3289 28.9871 72.0806 36.6597C72.9927 45.9692 52.456 39.6686 50.393 43.8355C48.3306 48.0034 69.1696 53.7275 63.8815 60.1669Z" fill="#A54CF6"/>
<path d="M29.4533 45.16C28.6853 45.16 28.0186 45.0533 27.4533 44.84C26.888 44.616 26.4186 44.312 26.0453 43.928C25.6826 43.544 25.4053 43.096 25.2133 42.584C25.0213 42.072 24.9093 41.5227 24.8773 40.936C24.8666 40.648 24.856 40.3227 24.8453 39.96C24.8453 39.5867 24.8453 39.2133 24.8453 38.84C24.856 38.456 24.8666 38.1147 24.8773 37.816C24.9093 37.2293 25.0213 36.6853 25.2133 36.184C25.416 35.672 25.704 35.2293 26.0773 34.856C26.4613 34.472 26.9306 34.1733 27.4853 33.96C28.0506 33.7467 28.7066 33.64 29.4533 33.64C30.2106 33.64 30.8666 33.7467 31.4213 33.96C31.976 34.1733 32.44 34.472 32.8133 34.856C33.1973 35.2293 33.4906 35.672 33.6933 36.184C33.896 36.6853 34.008 37.2293 34.0293 37.816C34.0506 38.1147 34.0613 38.456 34.0613 38.84C34.072 39.2133 34.072 39.5867 34.0613 39.96C34.0613 40.3227 34.0506 40.648 34.0293 40.936C34.008 41.5227 33.896 42.072 33.6933 42.584C33.5013 43.096 33.2186 43.544 32.8453 43.928C32.4826 44.312 32.0186 44.616 31.4533 44.84C30.8986 45.0533 30.232 45.16 29.4533 45.16ZM29.4533 42.84C30.008 42.84 30.408 42.664 30.6533 42.312C30.9093 41.9493 31.0426 41.464 31.0533 40.856C31.0746 40.5467 31.0853 40.2213 31.0853 39.88C31.096 39.5387 31.096 39.1973 31.0853 38.856C31.0853 38.5147 31.0746 38.2 31.0533 37.912C31.0426 37.3253 30.9093 36.8507 30.6533 36.488C30.408 36.1253 30.008 35.9387 29.4533 35.928C28.8986 35.9387 28.4986 36.1253 28.2533 36.488C28.008 36.8507 27.8746 37.3253 27.8533 37.912C27.8426 38.2 27.832 38.5147 27.8213 38.856C27.8213 39.1973 27.8213 39.5387 27.8213 39.88C27.832 40.2213 27.8426 40.5467 27.8533 40.856C27.8746 41.464 28.0133 41.9493 28.2693 42.312C28.5253 42.664 28.92 42.84 29.4533 42.84ZM35.9763 45C35.859 45 35.7576 44.9627 35.6723 44.888C35.5976 44.8133 35.5603 44.7173 35.5603 44.6V43.464C35.5603 43.3893 35.5816 43.2773 35.6243 43.128C35.667 42.968 35.779 42.8187 35.9603 42.68L37.6243 41.048C38.4776 40.3973 39.1763 39.848 39.7203 39.4C40.275 38.9413 40.6856 38.536 40.9523 38.184C41.219 37.832 41.3523 37.5013 41.3523 37.192C41.3523 36.8293 41.2563 36.5307 41.0643 36.296C40.883 36.0507 40.563 35.928 40.1043 35.928C39.795 35.928 39.5336 35.9973 39.3203 36.136C39.1176 36.264 38.963 36.4347 38.8563 36.648C38.7496 36.8613 38.675 37.08 38.6323 37.304C38.5896 37.4427 38.515 37.5387 38.4083 37.592C38.3123 37.6453 38.2056 37.672 38.0883 37.672H36.0883C35.9923 37.672 35.9123 37.64 35.8483 37.576C35.7843 37.512 35.7523 37.432 35.7523 37.336C35.763 36.824 35.8696 36.344 36.0723 35.896C36.2856 35.448 36.579 35.0533 36.9523 34.712C37.3363 34.36 37.7896 34.088 38.3123 33.896C38.8456 33.704 39.443 33.608 40.1043 33.608C41.011 33.608 41.779 33.752 42.4083 34.04C43.0483 34.328 43.5336 34.7333 43.8643 35.256C44.195 35.768 44.3603 36.3707 44.3603 37.064C44.3603 37.5867 44.243 38.0773 44.0083 38.536C43.7843 38.984 43.459 39.416 43.0323 39.832C42.6163 40.2373 42.1203 40.6587 41.5443 41.096L40.0723 42.584H44.1843C44.3016 42.584 44.3976 42.6213 44.4723 42.696C44.5576 42.7707 44.6003 42.8667 44.6003 42.984V44.6C44.6003 44.7173 44.5576 44.8133 44.4723 44.888C44.3976 44.9627 44.3016 45 44.1843 45H35.9763Z" fill="white"/>
</svg>
