<svg width="86" height="86" viewBox="0 0 86 86" fill="none" xmlns="http://www.w3.org/2000/svg">
<path d="M69.6461 24.557C75.0914 32.1618 53.6947 36.1643 55.1755 40.5709C56.6563 44.9774 76.5884 41.2669 74.593 48.9511C72.3606 57.5475 60.5823 49.5044 58.0479 53.3276C55.5139 57.1501 67.8093 64.8787 61.0056 69.4448C53.9363 74.1884 52.3203 57.6839 47.8131 58.5402C43.3059 59.3964 45.4371 73.5113 36.8423 74.0339C28.2602 74.5556 31.9608 67.786 29.8369 63.6445C26.8376 57.7967 19.8007 68.723 14.3797 60.6599C10.1053 54.3013 21.9771 52.3081 21.0537 47.7575C20.131 43.2073 9.57917 44.1197 11.3113 35.636C13.0867 26.9435 24.9253 35.4117 27.4592 31.5892C29.9936 27.766 19.9771 19.5662 24.8994 15.1427C30.9955 9.66395 35.6739 23.0832 40.1811 22.227C44.6882 21.3708 41.4563 9.29339 49.062 10.5531C58.2903 12.0816 46.8892 30.2879 50.3801 33.359C53.8722 36.4298 64.7948 17.7824 69.6461 24.557Z" fill="#E78722"/>
<path d="M34.5099 49.16C33.7419 49.16 33.0753 49.0533 32.5099 48.84C31.9446 48.616 31.4753 48.312 31.1019 47.928C30.7393 47.544 30.4619 47.096 30.2699 46.584C30.0779 46.072 29.9659 45.5227 29.9339 44.936C29.9233 44.648 29.9126 44.3227 29.9019 43.96C29.9019 43.5867 29.9019 43.2133 29.9019 42.84C29.9126 42.456 29.9233 42.1147 29.9339 41.816C29.9659 41.2293 30.0779 40.6853 30.2699 40.184C30.4726 39.672 30.7606 39.2293 31.1339 38.856C31.5179 38.472 31.9873 38.1733 32.5419 37.96C33.1073 37.7467 33.7633 37.64 34.5099 37.64C35.2673 37.64 35.9233 37.7467 36.4779 37.96C37.0326 38.1733 37.4966 38.472 37.8699 38.856C38.2539 39.2293 38.5473 39.672 38.7499 40.184C38.9526 40.6853 39.0646 41.2293 39.0859 41.816C39.1073 42.1147 39.1179 42.456 39.1179 42.84C39.1286 43.2133 39.1286 43.5867 39.1179 43.96C39.1179 44.3227 39.1073 44.648 39.0859 44.936C39.0646 45.5227 38.9526 46.072 38.7499 46.584C38.5579 47.096 38.2753 47.544 37.9019 47.928C37.5393 48.312 37.0753 48.616 36.5099 48.84C35.9553 49.0533 35.2886 49.16 34.5099 49.16ZM34.5099 46.84C35.0646 46.84 35.4646 46.664 35.7099 46.312C35.9659 45.9493 36.0993 45.464 36.1099 44.856C36.1313 44.5467 36.1419 44.2213 36.1419 43.88C36.1526 43.5387 36.1526 43.1973 36.1419 42.856C36.1419 42.5147 36.1313 42.2 36.1099 41.912C36.0993 41.3253 35.9659 40.8507 35.7099 40.488C35.4646 40.1253 35.0646 39.9387 34.5099 39.928C33.9553 39.9387 33.5553 40.1253 33.3099 40.488C33.0646 40.8507 32.9313 41.3253 32.9099 41.912C32.8993 42.2 32.8886 42.5147 32.8779 42.856C32.8779 43.1973 32.8779 43.5387 32.8779 43.88C32.8886 44.2213 32.8993 44.5467 32.9099 44.856C32.9313 45.464 33.0699 45.9493 33.3259 46.312C33.5819 46.664 33.9766 46.84 34.5099 46.84ZM44.3929 49C44.2863 49 44.1903 48.9627 44.1049 48.888C44.0303 48.8133 43.9929 48.7173 43.9929 48.6V40.984L41.8009 42.664C41.7049 42.7387 41.6036 42.7653 41.4969 42.744C41.4009 42.7227 41.3156 42.664 41.2409 42.568L40.2969 41.336C40.2329 41.24 40.2063 41.1387 40.2169 41.032C40.2383 40.9147 40.3023 40.824 40.4089 40.76L44.0889 37.912C44.1529 37.8693 44.2116 37.8427 44.2649 37.832C44.3289 37.8107 44.3983 37.8 44.4729 37.8H46.4729C46.5796 37.8 46.6703 37.8373 46.7449 37.912C46.8303 37.9867 46.8729 38.0827 46.8729 38.2V48.6C46.8729 48.7173 46.8303 48.8133 46.7449 48.888C46.6703 48.9627 46.5796 49 46.4729 49H44.3929Z" fill="white"/>
</svg>
