<svg width="24" height="24" viewBox="0 0 24 24" fill="none" xmlns="http://www.w3.org/2000/svg">
<path d="M18.3587 23.25H5.6413C2.95109 23.25 0.75 21.0489 0.75 18.3587V5.6413C0.75 2.95109 2.95109 0.75 5.6413 0.75H18.3587C21.0489 0.75 23.25 2.95109 23.25 5.6413V18.3587C23.25 21.0489 21.0489 23.25 18.3587 23.25Z" fill="url(#paint0_radial_17_3586)"/>
<path d="M12.0008 5.15099C14.2508 5.15099 14.4953 5.15099 15.3758 5.1999C16.2073 5.24881 16.6475 5.39555 16.941 5.49338C17.3323 5.64012 17.6258 5.83577 17.9192 6.12925C18.2127 6.42272 18.4084 6.7162 18.5551 7.10751C18.6529 7.40099 18.7997 7.8412 18.8486 8.67272C18.8486 9.50425 18.8486 9.74881 18.8486 11.9988C18.8486 14.2488 18.8486 14.4934 18.7997 15.3738C18.7508 16.2053 18.604 16.6456 18.5062 16.939C18.3595 17.3303 18.1638 17.6238 17.8703 17.9173C17.5769 18.2108 17.2834 18.4064 16.8921 18.5532C16.5986 18.651 16.1584 18.7977 15.3269 18.8466C14.4953 18.8466 14.2508 18.8466 12.0008 18.8466C9.75076 18.8466 9.5062 18.8466 8.62576 18.7977C7.79424 18.7488 7.35403 18.6021 7.06055 18.5042C6.66924 18.3575 6.37576 18.1619 6.08229 17.8684C5.78881 17.5749 5.59316 17.2814 5.44642 16.8901C5.34859 16.5966 5.20185 16.1564 5.15294 15.3249C5.15294 14.4934 5.15294 14.2488 5.15294 11.9988C5.15294 9.74881 5.15294 9.50425 5.20185 8.62381C5.25076 7.79229 5.3975 7.35207 5.49533 7.05859C5.64207 6.66729 5.83772 6.37381 6.1312 6.08033C6.42468 5.78685 6.71816 5.5912 7.10946 5.44446C7.40294 5.34664 7.84316 5.1999 8.67468 5.15099C9.5062 5.15099 9.75076 5.15099 12.0008 5.15099ZM12.0008 3.68359C9.75076 3.68359 9.45729 3.68359 8.57685 3.73251C7.69642 3.78142 7.10946 3.92816 6.57142 4.12381C6.03337 4.31946 5.54424 4.61294 5.10403 5.10207C4.66381 5.5912 4.37033 6.03142 4.12576 6.56946C3.93011 7.10751 3.78337 7.69446 3.73446 8.5749C3.68555 9.45533 3.68555 9.74881 3.68555 11.9988C3.68555 14.2488 3.68555 14.5423 3.73446 15.4227C3.78337 16.3032 3.93011 16.8901 4.12576 17.4282C4.32142 17.9662 4.61489 18.4553 5.10403 18.8956C5.54424 19.3358 6.03337 19.6292 6.57142 19.8738C7.10946 20.0695 7.69642 20.2162 8.57685 20.2651C9.45729 20.314 9.75076 20.314 12.0008 20.314C14.2508 20.314 14.5442 20.314 15.4247 20.2651C16.3051 20.2162 16.8921 20.0695 17.4301 19.8738C17.9682 19.6782 18.4573 19.3847 18.8975 18.8956C19.3377 18.4553 19.6312 17.9662 19.8758 17.4282C20.0714 16.8901 20.2182 16.3032 20.2671 15.4227C20.316 14.5423 20.316 14.2488 20.316 11.9988C20.316 9.74881 20.316 9.45533 20.2671 8.5749C20.2182 7.69446 20.0714 7.10751 19.8758 6.56946C19.6801 6.03142 19.3866 5.54229 18.8975 5.10207C18.4084 4.66185 17.9682 4.36838 17.4301 4.12381C16.8921 3.92816 16.3051 3.78142 15.4247 3.73251C14.5442 3.68359 14.2508 3.68359 12.0008 3.68359Z" fill="white"/>
<path d="M11.9998 7.5957C9.55418 7.5957 7.59766 9.55222 7.59766 11.9979C7.59766 14.4435 9.55418 16.4001 11.9998 16.4001C14.4455 16.4001 16.402 14.4435 16.402 11.9979C16.402 9.55222 14.4455 7.5957 11.9998 7.5957ZM11.9998 14.9327C10.3857 14.9327 9.06505 13.612 9.06505 11.9979C9.06505 10.3837 10.3857 9.06309 11.9998 9.06309C13.614 9.06309 14.9346 10.3837 14.9346 11.9979C14.9346 13.612 13.614 14.9327 11.9998 14.9327Z" fill="white"/>
<path d="M16.4021 8.57664C16.9424 8.57664 17.3803 8.13866 17.3803 7.59838C17.3803 7.0581 16.9424 6.62012 16.4021 6.62012C15.8618 6.62012 15.4238 7.0581 15.4238 7.59838C15.4238 8.13866 15.8618 8.57664 16.4021 8.57664Z" fill="white"/>
<defs>
<radialGradient id="paint0_radial_17_3586" cx="0" cy="0" r="1" gradientUnits="userSpaceOnUse" gradientTransform="translate(5.40111 27.7968) rotate(-49.945) scale(34.0658 22.5033)">
<stop offset="0.073" stop-color="#EACC7B"/>
<stop offset="0.184" stop-color="#ECAA59"/>
<stop offset="0.307" stop-color="#EF802E"/>
<stop offset="0.358" stop-color="#EF6D3A"/>
<stop offset="0.46" stop-color="#F04B50"/>
<stop offset="0.516" stop-color="#F03E58"/>
<stop offset="0.689" stop-color="#DB359E"/>
<stop offset="0.724" stop-color="#CE37A4"/>
<stop offset="0.789" stop-color="#AC3CB4"/>
<stop offset="0.877" stop-color="#7544CF"/>
<stop offset="0.98" stop-color="#2B4FF2"/>
</radialGradient>
</defs>
</svg>
