<svg width="28" height="28" viewBox="0 0 28 28" fill="none" xmlns="http://www.w3.org/2000/svg">
<path d="M14.0007 2.33301C8.53438 2.33301 4.08398 6.78341 4.08398 12.2497C4.08398 14.7036 4.98425 16.9542 6.46289 18.6846L6.46745 18.6891L6.47087 18.6937C6.47087 18.6937 10.6895 23.5074 12.1914 24.9406C13.1971 25.8995 14.803 25.8995 15.8088 24.9406C17.5207 23.3077 21.5316 18.6914 21.5316 18.6914L21.5339 18.688L21.5373 18.6846C23.0172 16.9541 23.9173 14.7036 23.9173 12.2497C23.9173 6.78341 19.4669 2.33301 14.0007 2.33301ZM14.0007 4.08301C18.521 4.08301 22.1673 7.72928 22.1673 12.2497C22.1673 14.2769 21.4286 16.1187 20.2065 17.5475C20.1986 17.5566 16.0948 22.2501 14.6011 23.6748C14.2547 24.0051 13.7455 24.0051 13.3991 23.6748C12.1507 22.4835 7.80629 17.5619 7.79362 17.5475L7.79248 17.5464C6.57209 16.1177 5.83398 14.2763 5.83398 12.2497C5.83398 7.72928 9.48025 4.08301 14.0007 4.08301ZM14.0007 8.74967C12.9069 8.74967 11.9758 9.19134 11.3779 9.86393C10.7801 10.5365 10.5007 11.399 10.5007 12.2497C10.5007 13.1004 10.7801 13.9628 11.3779 14.6354C11.9758 15.308 12.9069 15.7497 14.0007 15.7497C15.0944 15.7497 16.0255 15.308 16.6234 14.6354C17.2212 13.9628 17.5007 13.1004 17.5007 12.2497C17.5007 11.399 17.2212 10.5365 16.6234 9.86393C16.0255 9.19134 15.0944 8.74967 14.0007 8.74967ZM14.0007 10.4997C14.6569 10.4997 15.0383 10.7143 15.3154 11.026C15.5926 11.3378 15.7507 11.7879 15.7507 12.2497C15.7507 12.7115 15.5926 13.1615 15.3154 13.4733C15.0383 13.7851 14.6569 13.9997 14.0007 13.9997C13.3444 13.9997 12.963 13.7851 12.6859 13.4733C12.4087 13.1615 12.2507 12.7115 12.2507 12.2497C12.2507 11.7879 12.4087 11.3378 12.6859 11.026C12.963 10.7143 13.3444 10.4997 14.0007 10.4997Z" fill="#29395B"/>
</svg>
