<svg width="216" height="43" viewBox="0 0 216 43" fill="none" xmlns="http://www.w3.org/2000/svg">
<g clip-path="url(#clip0_27_16)">
<path d="M184.969 17.0153C184.864 13.7719 184.894 11.2885 184.962 9.62539C185.029 8.36112 186.149 7.57849 188.269 7.60106C191.079 7.63869 191.553 8.37617 191.839 9.11366C191.981 9.56518 191.944 9.7759 191.974 10.5962C191.996 11.0552 192.011 14.2234 192.072 16.8347C192.087 19.446 192.117 21.4703 192.087 22.9002C192.087 22.9002 192.049 24.2246 191.936 24.6761C191.613 25.9931 190.636 26.2565 188.389 26.2264C185.773 26.1963 185.195 25.519 185.074 24.2622C184.917 22.6894 185.074 20.2888 184.969 17.0153Z" fill="#FEA950"/>
<path d="M183.105 18.0535C182.993 17.602 182.775 17.1655 182.429 16.8043L178.987 13.1394C177.935 12.0181 176.161 11.9655 175.041 13.0265L174.102 13.9145C172.982 14.9756 172.937 16.7591 173.989 17.8804L174.816 18.7609C175.161 19.3629 173.981 19.5887 173.162 19.4758C170.103 19.0544 166.255 15.239 168.39 10.039C169.547 7.21696 172.704 5.84734 175.439 6.78801C178.062 7.69858 178.821 6.59235 179.475 5.32056C180.129 4.04877 180.257 2.44587 179.265 1.71591C177.679 0.549473 175.853 0.173205 173.252 0.143103C156.568 -0.0450314 157.755 26.0304 173.583 26.0831C179.084 26.0981 184.203 21.0486 183.105 18.0535Z" fill="#FEA950"/>
<path d="M3.64548 40.494H1.73651L1.41333 41.5175C1.3983 41.5701 1.37575 41.6078 1.34569 41.6303C1.31563 41.6529 1.26302 41.668 1.18035 41.668H0.203312C0.143187 41.668 0.105609 41.6529 0.0905773 41.6228C0.075546 41.5927 0.075546 41.5551 0.0830617 41.5099L1.81166 36.4679C1.84173 36.3776 1.87179 36.3024 1.90937 36.2497C1.94694 36.197 1.98452 36.1519 2.03713 36.1142C2.08223 36.0841 2.14235 36.0616 2.20248 36.0465C2.2626 36.0315 2.33776 36.0239 2.42043 36.0239H2.9315C3.0292 36.0239 3.10436 36.0315 3.172 36.039C3.23964 36.0465 3.29976 36.0691 3.34486 36.0992C3.39747 36.1293 3.43505 36.1744 3.47262 36.2346C3.5102 36.2948 3.54026 36.3701 3.57784 36.4679L5.30644 41.5099C5.31396 41.54 5.31396 41.5777 5.30644 41.6153C5.29893 41.6529 5.26135 41.668 5.20122 41.668H4.20916C4.14903 41.668 4.09642 41.6604 4.05884 41.6454C4.01375 41.6303 3.9912 41.5927 3.96866 41.54L3.64548 40.494ZM2.03713 39.5082H3.34486L3.0292 38.4847L2.72106 37.3258H2.66845L2.35279 38.4772L2.03713 39.5082Z" fill="white"/>
<path d="M10.2668 38.6731C10.4096 38.7182 10.5299 38.7784 10.6276 38.8386C10.7253 38.8988 10.8004 38.9741 10.8605 39.0493C10.9207 39.1321 10.9733 39.2224 11.0033 39.3202C11.0409 39.4181 11.071 39.531 11.1086 39.6438L11.6271 41.5101C11.6347 41.5402 11.6422 41.5703 11.6347 41.608C11.6271 41.6456 11.5896 41.6682 11.5144 41.6682H10.5524C10.5223 41.6682 10.4923 41.6606 10.4622 41.6531C10.4322 41.6456 10.4021 41.608 10.3871 41.5553L9.876 39.8244C9.8309 39.6815 9.77829 39.5686 9.72568 39.4858C9.66556 39.3955 9.59792 39.3278 9.51525 39.2826C9.43257 39.2375 9.33487 39.1998 9.22214 39.1848C9.1094 39.1697 8.98163 39.1547 8.83884 39.1547H8.15491L8.16243 41.5402C8.16243 41.6004 8.15491 41.6381 8.13236 41.6456C8.10982 41.6606 8.07224 41.6682 8.01211 41.6682H7.03508C6.98247 41.6682 6.94489 41.6606 6.92234 41.6456C6.8998 41.6305 6.88477 41.5929 6.88477 41.5402V36.1671C6.88477 36.1069 6.8998 36.0693 6.92234 36.0618C6.94489 36.0467 6.98247 36.0392 7.03508 36.0392H8.01211C8.06472 36.0392 8.10982 36.0467 8.13236 36.0618C8.15491 36.0768 8.16243 36.1144 8.1474 36.1671V38.214H8.81629C8.89896 38.214 8.98915 38.2065 9.07934 38.1914C9.16953 38.1764 9.25971 38.1463 9.3499 38.1011C9.44009 38.056 9.52276 37.9807 9.59792 37.8829C9.67308 37.7851 9.7332 37.6571 9.77829 37.4916L10.1541 36.1295C10.1616 36.0768 10.1917 36.0467 10.2217 36.0317C10.2593 36.0241 10.2894 36.0166 10.3194 36.0166H11.2514C11.3265 36.0166 11.3641 36.0392 11.3716 36.0768C11.3791 36.1144 11.3791 36.1521 11.3641 36.1746L10.9733 37.627C10.8605 38.0861 10.6276 38.4247 10.2668 38.6354V38.6731Z" fill="white"/>
<path d="M16.3701 40.494H14.4611L14.1379 41.5175C14.1229 41.5701 14.1004 41.6078 14.0703 41.6303C14.0402 41.6529 13.9876 41.668 13.905 41.668H12.9279C12.8678 41.668 12.8302 41.6529 12.8152 41.6228C12.8002 41.5927 12.8002 41.5551 12.8077 41.5099L14.5363 36.4679C14.5663 36.3776 14.5964 36.3024 14.634 36.2497C14.6716 36.197 14.7091 36.1519 14.7617 36.1142C14.8068 36.0841 14.867 36.0616 14.9271 36.0465C14.9872 36.0315 15.0624 36.0239 15.145 36.0239H15.6411C15.7388 36.0239 15.8139 36.0315 15.8816 36.039C15.9492 36.0465 16.0093 36.0691 16.0544 36.0992C16.107 36.1293 16.1446 36.1744 16.1822 36.2346C16.2198 36.2948 16.2498 36.3701 16.2874 36.4679L18.016 41.5099C18.0235 41.54 18.0235 41.5777 18.016 41.6153C18.0085 41.6529 17.9709 41.668 17.9108 41.668H16.9187C16.8586 41.668 16.806 41.6604 16.7684 41.6454C16.7233 41.6303 16.7008 41.5927 16.6782 41.54L16.3701 40.494ZM14.7693 39.5082H16.077L15.7613 38.4847L15.4532 37.3333H15.4006L15.0849 38.4847L14.7693 39.5082Z" fill="white"/>
<path d="M20.2923 41.6682C20.2848 41.8639 20.2698 42.052 20.2473 42.2477C20.2247 42.4434 20.2172 42.6315 20.1946 42.8272C20.1871 42.94 20.127 42.9927 20.0143 42.9927H19.3379C19.2402 42.9927 19.1875 42.94 19.18 42.8347L19.0898 41.0436C19.0898 40.9383 19.1124 40.848 19.15 40.7802C19.1875 40.7125 19.2702 40.6674 19.398 40.6373L19.6986 40.6147C19.8113 40.5093 19.9015 40.3889 19.9767 40.2685C20.0518 40.1481 20.1045 40.0127 20.1496 39.8772C20.1946 39.7417 20.2247 39.6063 20.2473 39.4633C20.2698 39.3203 20.2923 39.1849 20.3074 39.0419L20.6005 36.8144C20.6155 36.694 20.6381 36.5886 20.6531 36.4908C20.6756 36.393 20.7057 36.3102 20.7508 36.2424C20.7959 36.1747 20.8635 36.122 20.9462 36.0844C21.0289 36.0468 21.1341 36.0317 21.2694 36.0317H24.0051C24.223 36.0317 24.3658 36.0769 24.441 36.1672C24.5161 36.2575 24.5537 36.393 24.5537 36.5736V40.6072L24.907 40.6297C25.0347 40.6373 25.1174 40.6749 25.1625 40.7276C25.2076 40.7802 25.2226 40.8555 25.2151 40.9383L25.1099 42.8196C25.1024 42.8723 25.0949 42.9099 25.0723 42.94C25.0498 42.9701 25.0122 42.9777 24.9596 42.9777H24.2456C24.1404 42.9777 24.0878 42.925 24.0878 42.8121L24.0502 41.6682H20.2923ZM23.2986 37.1079H21.7579C21.6903 37.6798 21.6301 38.1689 21.585 38.5603C21.5324 38.9591 21.4873 39.2902 21.4422 39.5611C21.3972 39.8321 21.3445 40.0503 21.2994 40.2158C21.2468 40.3814 21.1942 40.5169 21.1341 40.6222H23.2986V37.1079Z" fill="white"/>
<path d="M31.077 41.6228C31.0544 41.6529 31.0093 41.668 30.9417 41.668H28.4841C28.1759 41.668 27.9204 41.6228 27.725 41.54C27.5296 41.4572 27.3718 41.3444 27.2515 41.2014C27.1313 41.0584 27.0561 40.9004 27.011 40.7273C26.9659 40.5467 26.9434 40.3736 26.9434 40.1855V37.5139C26.9434 37.3183 26.9734 37.1377 27.026 36.9571C27.0786 36.7765 27.1688 36.626 27.2891 36.483C27.4093 36.34 27.5672 36.2346 27.7626 36.1519C27.958 36.0691 28.1985 36.0239 28.4766 36.0239H30.8665C30.9342 36.0239 30.9793 36.039 30.9943 36.0616C31.0168 36.0917 31.0244 36.1368 31.0244 36.2121V36.8969C31.0244 36.9646 31.0168 37.0098 30.9943 37.0399C30.9718 37.0624 30.9267 37.0775 30.8665 37.0775H28.7546C28.5367 37.0775 28.3939 37.1226 28.3187 37.2205C28.2436 37.3183 28.2135 37.4312 28.2135 37.5742V38.1912H30.6035C30.6711 38.1912 30.7162 38.2063 30.7313 38.2289C30.7538 38.259 30.7613 38.3041 30.7613 38.3794V39.004C30.7613 39.0717 30.7538 39.1169 30.7313 39.147C30.7087 39.1771 30.6711 39.1921 30.6035 39.1921H28.2135V40.1102C28.2135 40.2983 28.2586 40.4263 28.3488 40.494C28.439 40.5617 28.5743 40.5918 28.7546 40.5918H30.9492C31.0244 40.5918 31.0695 40.6069 31.0845 40.6295C31.107 40.652 31.1146 40.7047 31.1146 40.7875V41.4723C31.1146 41.5476 31.0995 41.6002 31.077 41.6228Z" fill="white"/>
<path d="M37.6756 38.432H37.6229L37.2847 39.1771L36.5933 40.6596C36.5332 40.8025 36.473 40.8928 36.4054 40.938C36.3453 40.9832 36.2476 41.0133 36.1198 41.0133H35.6614C35.5261 41.0133 35.4284 40.9907 35.3758 40.938C35.3231 40.8928 35.263 40.795 35.1954 40.6596L34.6768 39.6135L34.1582 38.5299H34.1056V41.5099C34.1056 41.5852 34.0906 41.6303 34.0605 41.6454C34.0305 41.6604 33.9854 41.668 33.9102 41.668H33.0685C33.0083 41.668 32.9632 41.6604 32.9257 41.6454C32.8956 41.6303 32.873 41.5852 32.873 41.5099V36.5959C32.873 36.3927 32.9106 36.2497 32.9933 36.1594C33.076 36.0766 33.2113 36.0315 33.4067 36.0315H33.8877C34.0455 36.0315 34.1582 36.0616 34.2334 36.1142C34.3085 36.1669 34.3762 36.2647 34.4438 36.4077L35.3532 38.3718L35.8718 39.5157H35.9019L36.4655 38.259L37.3148 36.4228C37.3824 36.2798 37.4576 36.1744 37.5328 36.1142C37.6154 36.054 37.7432 36.0239 37.9236 36.0239H38.3294C38.5098 36.0239 38.6376 36.0616 38.7277 36.1293C38.8179 36.2045 38.863 36.34 38.863 36.5432V41.4949C38.863 41.5701 38.848 41.6153 38.8179 41.6303C38.7879 41.6454 38.7428 41.6529 38.6676 41.6529H37.8409C37.7808 41.6529 37.7357 41.6454 37.7056 41.6303C37.6755 41.6153 37.6605 41.5701 37.6605 41.4949V38.432H37.6756Z" fill="white"/>
<path d="M44.5982 37.9053L43.8542 39.1093L42.4487 41.3143C42.3961 41.3895 42.351 41.4497 42.3135 41.4949C42.2759 41.54 42.2308 41.5777 42.1857 41.6002C42.1406 41.6303 42.088 41.6454 42.0354 41.6529C41.9753 41.6604 41.9076 41.668 41.8249 41.668H41.4943C41.2763 41.668 41.1335 41.6153 41.0583 41.5175C40.9832 41.4196 40.9531 41.2842 40.9531 41.1111V36.182C40.9531 36.0766 41.0132 36.0315 41.126 36.0315H42.0203C42.0955 36.0315 42.1481 36.039 42.1631 36.0616C42.1857 36.0841 42.1932 36.1218 42.1932 36.182V39.8017H42.2458L42.9523 38.6729L44.3953 36.3927C44.4479 36.3174 44.493 36.2572 44.5306 36.2045C44.5682 36.1594 44.6132 36.1218 44.6583 36.0917C44.7034 36.0616 44.756 36.0465 44.8087 36.039C44.8613 36.0315 44.9364 36.0239 45.0191 36.0239H45.3573C45.5602 36.0239 45.703 36.0691 45.7782 36.1519C45.8533 36.2346 45.8984 36.3776 45.8984 36.5883V41.5099C45.8984 41.6153 45.8383 41.6604 45.7256 41.6604H44.8312C44.756 41.6604 44.7034 41.6529 44.6809 41.6303C44.6583 41.6078 44.6508 41.5701 44.6508 41.5099V37.8977H44.5982V37.9053Z" fill="white"/>
<path d="M51.0463 39.3952H50.2722C50.0166 39.3952 49.8212 39.4479 49.6784 39.5457C49.5431 39.651 49.4379 39.8316 49.3628 40.095C49.3402 40.1703 49.3102 40.2756 49.2801 40.4036C49.25 40.5315 49.2125 40.667 49.1749 40.8024C49.1373 40.9454 49.0997 41.0733 49.0697 41.2013C49.0396 41.3292 49.0095 41.4346 48.9945 41.5098C48.972 41.5926 48.9269 41.6377 48.8592 41.6528C48.7916 41.6678 48.7239 41.6754 48.6638 41.6754H47.7469C47.6642 41.6754 47.6191 41.6453 47.6191 41.5851C47.6191 41.5625 47.6267 41.5324 47.6342 41.4872L48.055 39.9295C48.1077 39.7263 48.1828 39.5532 48.288 39.4178C48.3933 39.2748 48.5661 39.1769 48.8141 39.1017V39.0866C48.4834 38.9813 48.2505 38.8007 48.1077 38.5448C47.9649 38.2965 47.8897 38.0105 47.8897 37.7095C47.8897 37.4612 47.9348 37.2354 48.0175 37.0322C48.1001 36.829 48.2279 36.6559 48.3857 36.5054C48.5436 36.3549 48.7465 36.242 48.987 36.1668C49.2275 36.084 49.4981 36.0464 49.7912 36.0464H51.8204C52.0233 36.0464 52.1511 36.0915 52.2187 36.1743C52.2864 36.2571 52.3164 36.3775 52.3164 36.5431V41.5399C52.3164 41.6001 52.3014 41.6377 52.2713 41.6528C52.2413 41.6678 52.1962 41.6754 52.1361 41.6754H51.2116C51.1365 41.6754 51.0839 41.6678 51.0613 41.6528C51.0388 41.6377 51.0312 41.6001 51.0312 41.5399V39.3952H51.0463ZM49.1899 37.7622C49.1899 37.9578 49.25 38.1083 49.3778 38.2287C49.5056 38.3492 49.6935 38.4094 49.9415 38.4094H51.0463V37.1225H49.9114C49.7686 37.1225 49.6484 37.1451 49.5507 37.1827C49.453 37.2203 49.3853 37.273 49.3327 37.3407C49.2801 37.4085 49.2425 37.4762 49.22 37.5515C49.2049 37.6192 49.1899 37.6944 49.1899 37.7622Z" fill="white"/>
<path d="M58.3216 41.6682C58.3141 41.8639 58.2991 42.052 58.2766 42.2477C58.2615 42.4434 58.2465 42.6315 58.2239 42.8272C58.2164 42.94 58.1563 42.9927 58.0436 42.9927H57.3672C57.2695 42.9927 57.2168 42.94 57.2093 42.8347L57.1191 41.0436C57.1191 40.9383 57.1417 40.848 57.1793 40.7802C57.2168 40.7125 57.2995 40.6674 57.4273 40.6373L57.7279 40.6147C57.8406 40.5093 57.9308 40.3889 58.006 40.2685C58.0811 40.1481 58.1338 40.0127 58.1789 39.8772C58.2239 39.7417 58.254 39.6063 58.2766 39.4633C58.2991 39.3203 58.3216 39.1849 58.3367 39.0419L58.6298 36.8144C58.6448 36.694 58.6674 36.5886 58.6824 36.4908C58.7049 36.393 58.735 36.3102 58.7801 36.2424C58.8252 36.1747 58.8928 36.122 58.9755 36.0844C59.0582 36.0468 59.1634 36.0317 59.2987 36.0317H62.0344C62.2523 36.0317 62.3951 36.0769 62.4703 36.1672C62.5454 36.2575 62.583 36.393 62.583 36.5736V40.6072L62.9363 40.6297C63.064 40.6373 63.1467 40.6749 63.1918 40.7276C63.2369 40.7802 63.2519 40.8555 63.2444 40.9383L63.1392 42.8196C63.1317 42.8723 63.1242 42.9099 63.1016 42.94C63.0791 42.9701 63.0415 42.9777 62.9889 42.9777H62.2749C62.1697 42.9777 62.1171 42.925 62.1171 42.8121L62.072 41.6532H58.3216V41.6682ZM61.3279 37.1079H59.7872C59.7196 37.6798 59.6594 38.1689 59.6143 38.5603C59.5617 38.9591 59.5166 39.2902 59.4715 39.5611C59.4264 39.8321 59.3738 40.0503 59.3287 40.2158C59.2761 40.3814 59.2235 40.5169 59.1634 40.6222H61.3354V37.1079H61.3279Z" fill="white"/>
<path d="M69.1138 41.6228C69.0912 41.6529 69.0461 41.668 68.9785 41.668H66.5134C66.2052 41.668 65.9497 41.6228 65.7543 41.54C65.5589 41.4572 65.4011 41.3444 65.2808 41.2014C65.1606 41.0584 65.0854 40.9004 65.0403 40.7273C64.9952 40.5467 64.9727 40.3736 64.9727 40.1855V37.5139C64.9727 37.3183 65.0027 37.1377 65.0553 36.9571C65.1079 36.7765 65.1981 36.626 65.3184 36.483C65.4386 36.34 65.5965 36.2346 65.7919 36.1519C65.9873 36.0691 66.2278 36.0239 66.5059 36.0239H68.8958C68.9635 36.0239 69.0086 36.039 69.0236 36.0616C69.0461 36.0917 69.0537 36.1368 69.0537 36.2121V36.8969C69.0537 36.9646 69.0461 37.0098 69.0236 37.0399C69.001 37.0624 68.956 37.0775 68.8958 37.0775H66.7839C66.566 37.0775 66.4232 37.1226 66.348 37.2205C66.2729 37.3183 66.2428 37.4312 66.2428 37.5742V38.1912H68.6328C68.7004 38.1912 68.7455 38.2063 68.7605 38.2289C68.7831 38.259 68.7906 38.3041 68.7906 38.3794V39.004C68.7906 39.0717 68.7831 39.1169 68.7605 39.147C68.738 39.1771 68.7004 39.1921 68.6328 39.1921H66.2428V40.1102C66.2428 40.2983 66.2879 40.4263 66.3781 40.494C66.4683 40.5617 66.6036 40.5918 66.7839 40.5918H68.9785C69.0537 40.5918 69.0988 40.6069 69.1138 40.6295C69.1363 40.652 69.1438 40.7047 69.1438 40.7875V41.4723C69.1438 41.5476 69.1288 41.6002 69.1138 41.6228Z" fill="white"/>
<path d="M74.804 37.0851H73.3008V41.495C73.3008 41.5627 73.2858 41.6078 73.2633 41.6304C73.2407 41.653 73.1806 41.6605 73.0979 41.6605H72.2036C72.1359 41.6605 72.0908 41.6455 72.0608 41.6229C72.0307 41.6003 72.0157 41.5552 72.0157 41.4874V37.0776H70.5426C70.4374 37.0776 70.3848 37.0249 70.3848 36.9195V36.2046C70.3848 36.1369 70.3923 36.0917 70.4148 36.0692C70.4374 36.0466 70.475 36.0391 70.5426 36.0391H74.804C74.8716 36.0391 74.9167 36.0466 74.9393 36.0692C74.9618 36.0917 74.9693 36.1369 74.9693 36.2046V36.9195C74.9693 37.0324 74.9167 37.0851 74.804 37.0851Z" fill="white"/>
<path d="M78.8768 40.6522C79.1398 40.6522 79.3803 40.6221 79.5833 40.5619C79.7862 40.5017 79.9816 40.4339 80.1545 40.3737C80.2296 40.3436 80.2897 40.3361 80.3198 40.3512C80.3499 40.3737 80.3799 40.4114 80.41 40.464L80.6956 41.0435C80.7332 41.1188 80.7482 41.1714 80.7407 41.2091C80.7332 41.2467 80.6956 41.2768 80.6505 41.3069C80.3499 41.4875 80.0342 41.6004 79.7035 41.6681C79.3728 41.7283 79.0497 41.7584 78.7265 41.7584C78.268 41.7584 77.8772 41.6907 77.5465 41.5627C77.2158 41.4348 76.9453 41.2392 76.7273 40.9983C76.5169 40.75 76.359 40.449 76.2538 40.0953C76.1486 39.7416 76.1035 39.3352 76.1035 38.8912C76.1035 38.4548 76.1712 38.0559 76.2989 37.6947C76.4267 37.3335 76.6146 37.0249 76.8476 36.7691C77.0805 36.5132 77.3586 36.31 77.6893 36.1746C78.02 36.0316 78.3808 35.9639 78.7866 35.9639C79.0722 35.9639 79.3503 35.9864 79.6208 36.0316C79.8914 36.0767 80.162 36.1671 80.4175 36.31C80.4776 36.3401 80.5152 36.3778 80.5227 36.4079C80.5302 36.438 80.5227 36.4982 80.4776 36.596L80.2221 37.1529C80.192 37.2281 80.162 37.2733 80.1319 37.2883C80.1018 37.3034 80.0492 37.2959 79.9666 37.2733C79.7636 37.2056 79.5833 37.1529 79.4104 37.1152C79.2375 37.0776 79.0497 37.0626 78.8392 37.0626C78.6137 37.0626 78.4108 37.1077 78.238 37.2056C78.0651 37.2959 77.9148 37.4313 77.7945 37.5893C77.6743 37.7549 77.5841 37.943 77.524 38.1688C77.4638 38.3946 77.4338 38.6354 77.4338 38.8988C77.4338 39.1622 77.4563 39.403 77.5014 39.6137C77.5465 39.8244 77.6292 40.0125 77.7419 40.1706C77.8547 40.3286 78.005 40.449 78.1854 40.5318C78.3732 40.607 78.5987 40.6522 78.8768 40.6522Z" fill="white"/>
<path d="M85.8299 38.6731C85.9727 38.7182 86.093 38.7784 86.1907 38.8386C86.2884 38.8988 86.3635 38.9741 86.4236 39.0493C86.4838 39.1321 86.5364 39.2224 86.5664 39.3202C86.604 39.4181 86.6341 39.531 86.6717 39.6438L87.1902 41.5101C87.1978 41.5402 87.2053 41.5703 87.1978 41.608C87.1902 41.6456 87.1527 41.6682 87.0775 41.6682H86.1155C86.0854 41.6682 86.0554 41.6606 86.0253 41.6531C85.9952 41.6456 85.9652 41.608 85.9502 41.5553L85.4391 39.8244C85.394 39.6815 85.3414 39.5686 85.2888 39.4858C85.2287 39.3955 85.161 39.3278 85.0783 39.2826C84.9957 39.2375 84.898 39.1998 84.7852 39.1848C84.6725 39.1697 84.5447 39.1547 84.4019 39.1547H83.718L83.7255 41.5402C83.7255 41.6004 83.718 41.6381 83.6955 41.6456C83.6729 41.6606 83.6353 41.6682 83.5752 41.6682H82.6132C82.5606 41.6682 82.523 41.6606 82.5005 41.6456C82.4779 41.6305 82.4629 41.5929 82.4629 41.5402V36.1671C82.4629 36.1069 82.4779 36.0693 82.5005 36.0618C82.523 36.0467 82.5606 36.0392 82.6132 36.0392H83.5902C83.6428 36.0392 83.6879 36.0467 83.7105 36.0618C83.733 36.0768 83.7406 36.1144 83.7255 36.1671V38.214H84.3944C84.4771 38.214 84.5673 38.2065 84.6575 38.1914C84.7476 38.1764 84.8378 38.1463 84.928 38.1011C85.0182 38.056 85.1009 37.9807 85.176 37.8829C85.2512 37.7851 85.3113 37.6571 85.3564 37.4916L85.7322 36.1295C85.7397 36.0768 85.7698 36.0467 85.7998 36.0317C85.8374 36.0241 85.8675 36.0166 85.8975 36.0166H86.8295C86.9046 36.0166 86.9422 36.0392 86.9497 36.0768C86.9573 36.1144 86.9573 36.1521 86.9422 36.1746L86.5439 37.627C86.4312 38.0861 86.1982 38.4247 85.8374 38.6354V38.6731H85.8299Z" fill="white"/>
<path d="M93.8937 38.8385C93.8937 39.2975 93.8411 39.7114 93.7434 40.0651C93.6382 40.4263 93.4804 40.7273 93.2624 40.9832C93.0445 41.2315 92.7739 41.4272 92.4432 41.5551C92.1125 41.6831 91.7292 41.7508 91.2783 41.7508C90.4215 41.7508 89.7751 41.5025 89.3618 40.9983C88.9409 40.4941 88.7305 39.7791 88.7305 38.8611C88.7305 38.4095 88.7906 38.0032 88.9108 37.6419C89.0311 37.2807 89.204 36.9722 89.4219 36.7238C89.6474 36.4755 89.9104 36.2798 90.2261 36.1519C90.5417 36.0165 90.9025 35.9487 91.3008 35.9487C91.7367 35.9487 92.1125 36.0165 92.4357 36.1519C92.7589 36.2874 93.0294 36.4755 93.2399 36.7238C93.4503 36.9722 93.6156 37.2732 93.7209 37.6344C93.8336 37.9956 93.8937 38.3945 93.8937 38.8385ZM92.5635 38.8611C92.5635 38.6202 92.5484 38.387 92.5108 38.1687C92.4733 37.9505 92.4131 37.7548 92.3154 37.5893C92.2177 37.4237 92.09 37.2882 91.9321 37.1904C91.7743 37.0926 91.5639 37.0399 91.3083 37.0399C91.0979 37.0399 90.91 37.0851 90.7522 37.1829C90.5944 37.2732 90.4591 37.4011 90.3539 37.5667C90.2486 37.7247 90.1735 37.9129 90.1209 38.1311C90.0683 38.3418 90.0457 38.5751 90.0457 38.8159C90.0457 39.1019 90.0683 39.3577 90.1058 39.576C90.1509 39.8017 90.2186 39.9974 90.3163 40.1554C90.414 40.3134 90.5417 40.4414 90.6996 40.5242C90.8574 40.6069 91.0603 40.6521 91.3083 40.6521C91.5488 40.6521 91.7443 40.5994 91.9096 40.5016C92.0674 40.4038 92.1952 40.2683 92.2929 40.1103C92.3906 39.9447 92.4582 39.7566 92.4958 39.5383C92.5484 39.3276 92.5635 39.1019 92.5635 38.8611Z" fill="white"/>
<path d="M97.0735 41.5027C97.0735 41.5779 97.066 41.6231 97.0434 41.6457C97.0209 41.6682 96.9683 41.6758 96.8856 41.6758H96.0063C95.9386 41.6758 95.8935 41.6607 95.8635 41.6381C95.8334 41.6156 95.8184 41.5704 95.8184 41.5027V37.5218C95.8184 37.3261 95.8409 37.1455 95.901 36.9649C95.9536 36.7843 96.0363 36.6338 96.1566 36.4908C96.2768 36.3478 96.4347 36.2424 96.6301 36.1597C96.8255 36.0769 97.066 36.0317 97.3516 36.0317H99.7491C99.8242 36.0317 99.8693 36.0468 99.8843 36.0694C99.9069 36.0995 99.9144 36.1446 99.9144 36.2199V36.9047C99.9144 36.9724 99.9069 37.0176 99.8843 37.0477C99.8618 37.0702 99.8167 37.0853 99.7491 37.0853H97.6296C97.4117 37.0853 97.2689 37.1304 97.1937 37.2283C97.1186 37.3186 97.0885 37.439 97.0885 37.5895V41.5027H97.0735Z" fill="white"/>
<path d="M106.423 38.8385C106.423 39.2975 106.37 39.7114 106.273 40.0651C106.167 40.4263 106.01 40.7273 105.792 40.9832C105.574 41.2315 105.303 41.4272 104.973 41.5551C104.642 41.6831 104.259 41.7508 103.808 41.7508C102.951 41.7508 102.304 41.5025 101.891 40.9983C101.47 40.4941 101.26 39.7791 101.26 38.8611C101.26 38.4095 101.32 38.0032 101.44 37.6419C101.56 37.2807 101.733 36.9722 101.951 36.7238C102.177 36.4755 102.44 36.2798 102.755 36.1519C103.071 36.0165 103.432 35.9487 103.83 35.9487C104.266 35.9487 104.642 36.0165 104.965 36.1519C105.288 36.2874 105.559 36.4755 105.769 36.7238C105.98 36.9722 106.145 37.2732 106.25 37.6344C106.37 37.9956 106.423 38.3945 106.423 38.8385ZM105.1 38.8611C105.1 38.6202 105.085 38.387 105.048 38.1687C105.01 37.9505 104.95 37.7548 104.852 37.5893C104.755 37.4237 104.627 37.2882 104.469 37.1904C104.311 37.0926 104.101 37.0399 103.845 37.0399C103.635 37.0399 103.447 37.0851 103.289 37.1829C103.131 37.2732 102.996 37.4011 102.891 37.5667C102.785 37.7247 102.71 37.9129 102.658 38.1311C102.605 38.3418 102.583 38.5751 102.583 38.8159C102.583 39.1019 102.605 39.3577 102.643 39.576C102.688 39.8017 102.755 39.9974 102.853 40.1554C102.951 40.3134 103.079 40.4414 103.236 40.5242C103.394 40.6069 103.597 40.6521 103.845 40.6521C104.086 40.6521 104.281 40.5994 104.446 40.5016C104.604 40.4038 104.732 40.2683 104.83 40.1103C104.927 39.9447 104.995 39.7566 105.033 39.5383C105.085 39.3276 105.1 39.1019 105.1 38.8611Z" fill="white"/>
<path d="M116.35 41.5177C116.35 41.5779 116.343 41.6156 116.32 41.6381C116.298 41.6607 116.245 41.6682 116.17 41.6682H115.261C115.14 41.6682 115.088 41.6156 115.088 41.5177V37.1079H112.84V41.5177C112.84 41.5779 112.833 41.6156 112.81 41.6381C112.788 41.6607 112.735 41.6682 112.66 41.6682H111.743C111.623 41.6682 111.57 41.6156 111.57 41.5177V36.5811C111.57 36.393 111.608 36.2575 111.691 36.1672C111.773 36.0769 111.909 36.0317 112.104 36.0317H115.824C116.027 36.0317 116.162 36.0769 116.238 36.1672C116.313 36.2575 116.358 36.393 116.358 36.5811V41.5177H116.35Z" fill="white"/>
<path d="M119.169 36.5807C119.176 36.3926 119.221 36.2571 119.296 36.1743C119.372 36.0915 119.507 36.0464 119.702 36.0464H122.693C122.896 36.0464 123.032 36.0915 123.107 36.1818C123.182 36.2721 123.227 36.4076 123.227 36.5882V41.5324C123.227 41.5926 123.22 41.6302 123.197 41.6453C123.174 41.6678 123.129 41.6754 123.054 41.6754H122.13C122.07 41.6754 122.025 41.6678 122.002 41.6453C121.979 41.6302 121.964 41.5851 121.964 41.5324V37.1075H120.341L120.311 37.6719C120.266 38.2664 120.221 38.7931 120.176 39.2522C120.131 39.7112 120.048 40.1101 119.935 40.4563C119.815 40.7949 119.642 41.0809 119.417 41.3066C119.184 41.5324 118.868 41.713 118.455 41.8409C118.394 41.8635 118.342 41.871 118.304 41.856C118.259 41.8484 118.229 41.8108 118.199 41.7431L117.913 41.1411C117.891 41.0959 117.883 41.0508 117.898 41.0056C117.906 40.9605 117.944 40.9304 118.004 40.9003C118.222 40.7949 118.394 40.6745 118.522 40.539C118.65 40.3961 118.755 40.2154 118.83 39.9822C118.906 39.7489 118.958 39.4629 118.996 39.1092C119.033 38.7555 119.063 38.3266 119.101 37.7998L119.169 36.5807Z" fill="white"/>
<path d="M128.36 40.494H126.451L126.128 41.5175C126.113 41.5701 126.091 41.6078 126.061 41.6303C126.03 41.6529 125.978 41.668 125.895 41.668H124.918C124.858 41.668 124.82 41.6529 124.805 41.6228C124.79 41.5927 124.79 41.5551 124.798 41.5099L126.527 36.4679C126.557 36.3776 126.587 36.3024 126.624 36.2497C126.662 36.197 126.699 36.1519 126.752 36.1142C126.797 36.0841 126.857 36.0616 126.917 36.0465C126.977 36.0315 127.053 36.0239 127.135 36.0239H127.631C127.729 36.0239 127.804 36.0315 127.872 36.039C127.939 36.0465 128 36.0691 128.045 36.0992C128.097 36.1293 128.135 36.1744 128.172 36.2346C128.21 36.2948 128.24 36.3701 128.278 36.4679L130.006 41.5099C130.014 41.54 130.014 41.5777 130.006 41.6153C129.999 41.6529 129.961 41.668 129.901 41.668H128.909C128.849 41.668 128.796 41.6604 128.759 41.6454C128.714 41.6303 128.691 41.5927 128.668 41.54L128.36 40.494ZM126.752 39.5082H128.06L127.744 38.4847L127.436 37.3333H127.383L127.068 38.4847L126.752 39.5082Z" fill="white"/>
<path d="M135.283 38.59C135.44 38.6502 135.576 38.7254 135.688 38.8308C135.801 38.9286 135.891 39.0415 135.967 39.1619C136.042 39.2823 136.094 39.4102 136.124 39.5532C136.154 39.6962 136.177 39.8316 136.177 39.9596C136.177 40.2154 136.124 40.4487 136.027 40.6594C135.921 40.8702 135.779 41.0508 135.606 41.2013C135.425 41.3518 135.215 41.4647 134.974 41.5474C134.734 41.6302 134.471 41.6754 134.193 41.6754H132.103C131.901 41.6754 131.773 41.6377 131.705 41.5625C131.637 41.4872 131.607 41.3593 131.607 41.1862V36.5431C131.607 36.37 131.637 36.242 131.705 36.1668C131.773 36.084 131.908 36.0464 132.103 36.0464H134.14C134.388 36.0464 134.621 36.0765 134.847 36.1292C135.065 36.1818 135.253 36.2646 135.418 36.385C135.576 36.4979 135.703 36.6484 135.794 36.829C135.884 37.0096 135.929 37.2279 135.929 37.4762C135.929 37.702 135.869 37.9127 135.749 38.1083C135.628 38.304 135.478 38.4545 135.29 38.5523V38.59H135.283ZM132.863 38.1685H133.997C134.065 38.1685 134.133 38.161 134.208 38.146C134.283 38.1309 134.351 38.1008 134.411 38.0632C134.471 38.0256 134.523 37.9654 134.561 37.8976C134.599 37.8224 134.621 37.7321 134.621 37.6192C134.621 37.4612 134.569 37.3332 134.463 37.2429C134.358 37.1526 134.215 37.1075 134.042 37.1075H132.87V38.1685H132.863ZM134.869 39.8768C134.869 39.6661 134.802 39.4855 134.666 39.3576C134.531 39.2221 134.328 39.1544 134.065 39.1544H132.87V40.5917H134.065C134.223 40.5917 134.351 40.5691 134.456 40.524C134.561 40.4788 134.644 40.4186 134.704 40.3509C134.764 40.2832 134.809 40.2004 134.832 40.1176C134.854 40.0348 134.869 39.9521 134.869 39.8768Z" fill="white"/>
<path d="M141.138 40.494H139.229L138.906 41.5175C138.89 41.5701 138.868 41.6078 138.838 41.6303C138.808 41.6529 138.755 41.668 138.673 41.668H137.696C137.635 41.668 137.598 41.6529 137.583 41.6228C137.568 41.5927 137.568 41.5551 137.575 41.5099L139.304 36.4679C139.334 36.3776 139.364 36.3024 139.402 36.2497C139.439 36.197 139.477 36.1519 139.529 36.1142C139.574 36.0841 139.635 36.0616 139.695 36.0465C139.755 36.0315 139.83 36.0239 139.913 36.0239H140.409C140.506 36.0239 140.582 36.0315 140.649 36.039C140.717 36.0465 140.777 36.0691 140.822 36.0992C140.875 36.1293 140.912 36.1744 140.95 36.2346C140.987 36.2948 141.017 36.3701 141.055 36.4679L142.784 41.5099C142.791 41.54 142.791 41.5777 142.784 41.6153C142.776 41.6529 142.739 41.668 142.678 41.668H141.686C141.626 41.668 141.574 41.6604 141.536 41.6454C141.491 41.6303 141.468 41.5927 141.446 41.54L141.138 40.494ZM139.529 39.5082H140.837L140.521 38.4847L140.213 37.3333H140.161L139.845 38.4847L139.529 39.5082Z" fill="white"/>
<path d="M149.127 41.6381C149.104 41.6606 149.044 41.6682 148.961 41.6682H148.089C148.014 41.6682 147.969 41.6531 147.939 41.6305C147.909 41.608 147.894 41.5628 147.894 41.4951V39.245H145.639V41.4951C145.639 41.5628 145.624 41.608 145.602 41.6305C145.579 41.6531 145.519 41.6606 145.436 41.6606H144.557C144.489 41.6606 144.444 41.6456 144.414 41.623C144.384 41.6004 144.369 41.5553 144.369 41.4876V36.1972C144.369 36.1295 144.384 36.0919 144.414 36.0618C144.444 36.0392 144.497 36.0241 144.557 36.0241H145.436C145.519 36.0241 145.572 36.0317 145.602 36.0542C145.624 36.0768 145.639 36.122 145.639 36.1897V38.1914H147.894V36.1897C147.894 36.122 147.909 36.0843 147.939 36.0542C147.969 36.0317 148.014 36.0166 148.089 36.0166H148.961C149.044 36.0166 149.096 36.0241 149.127 36.0467C149.149 36.0693 149.164 36.1144 149.164 36.1822V41.4725C149.164 41.5703 149.157 41.6155 149.127 41.6381Z" fill="white"/>
<path d="M154.891 37.9053L154.147 39.1093L152.742 41.3143C152.689 41.3895 152.644 41.4497 152.606 41.4949C152.569 41.54 152.524 41.5777 152.479 41.6002C152.434 41.6303 152.381 41.6454 152.328 41.6529C152.268 41.6604 152.201 41.668 152.118 41.668H151.787C151.569 41.668 151.426 41.6153 151.351 41.5175C151.276 41.4196 151.246 41.2842 151.246 41.1111V36.182C151.246 36.0766 151.306 36.0315 151.419 36.0315H152.313C152.388 36.0315 152.441 36.039 152.456 36.0616C152.479 36.0841 152.486 36.1218 152.486 36.182V39.8017H152.539L153.245 38.6729L154.688 36.3927C154.741 36.3174 154.786 36.2572 154.824 36.2045C154.861 36.1594 154.906 36.1218 154.951 36.0917C154.996 36.0616 155.049 36.0465 155.102 36.039C155.154 36.0315 155.229 36.0239 155.312 36.0239H155.65C155.853 36.0239 155.996 36.0691 156.071 36.1519C156.146 36.2346 156.191 36.3776 156.191 36.5883V41.5099C156.191 41.6153 156.131 41.6604 156.019 41.6604H155.124C155.049 41.6604 154.996 41.6529 154.974 41.6303C154.951 41.6078 154.944 41.5701 154.944 41.5099V37.8977H154.891V37.9053Z" fill="white"/>
<path d="M161.347 39.3952H160.573C160.317 39.3952 160.122 39.4479 159.979 39.5457C159.844 39.651 159.731 39.8316 159.664 40.095C159.641 40.1703 159.611 40.2756 159.581 40.4036C159.551 40.5315 159.513 40.667 159.476 40.8024C159.438 40.9454 159.401 41.0733 159.37 41.2013C159.34 41.3292 159.31 41.4346 159.295 41.5098C159.273 41.5926 159.228 41.6377 159.16 41.6528C159.092 41.6678 159.025 41.6754 158.965 41.6754H158.048C157.965 41.6754 157.92 41.6453 157.92 41.5851C157.92 41.5625 157.927 41.5324 157.935 41.4872L158.356 39.9295C158.408 39.7263 158.484 39.5532 158.589 39.4178C158.694 39.2748 158.867 39.1769 159.115 39.1017V39.0866C158.784 38.9813 158.551 38.8007 158.408 38.5448C158.266 38.2965 158.19 38.0105 158.19 37.7095C158.19 37.4612 158.236 37.2354 158.318 37.0322C158.401 36.829 158.529 36.6559 158.687 36.5054C158.844 36.3549 159.047 36.242 159.288 36.1668C159.528 36.084 159.799 36.0464 160.092 36.0464H162.121C162.324 36.0464 162.452 36.0915 162.52 36.1743C162.587 36.2571 162.617 36.3775 162.617 36.5431V41.5399C162.617 41.6001 162.602 41.6377 162.572 41.6528C162.542 41.6678 162.497 41.6754 162.437 41.6754H161.512C161.437 41.6754 161.385 41.6678 161.362 41.6528C161.34 41.6377 161.332 41.6001 161.332 41.5399V39.3952H161.347ZM159.491 37.7622C159.491 37.9578 159.551 38.1083 159.679 38.2287C159.806 38.3492 159.994 38.4094 160.242 38.4094H161.347V37.1225H160.212C160.069 37.1225 159.949 37.1451 159.851 37.1827C159.754 37.2203 159.686 37.273 159.633 37.3407C159.581 37.4085 159.543 37.4762 159.521 37.5515C159.498 37.6192 159.491 37.6944 159.491 37.7622Z" fill="white"/>
<path d="M188.726 6.26884H188.29C186.569 6.26884 185.156 4.85407 185.156 3.13076C185.156 1.40745 186.569 -0.00732422 188.29 -0.00732422H188.726C190.447 -0.00732422 191.86 1.40745 191.86 3.13076C191.86 4.86159 190.447 6.26884 188.726 6.26884Z" fill="#FEA950"/>
<path d="M186.923 41.5929C182.819 40.9156 178.979 38.8236 176.168 35.5726C174.943 34.1578 175.101 32.0206 176.506 30.794C177.919 29.5674 180.053 29.7254 181.279 31.1326C183.894 34.1503 187.915 35.5801 191.785 34.8652C195.04 34.2632 197.512 32.2464 198.565 29.3341C199.203 27.5731 201.142 26.6626 202.901 27.3022C204.66 27.9419 205.569 29.8834 204.93 31.6444C203.066 36.7993 198.61 40.4942 193.018 41.5252C190.989 41.909 188.922 41.9165 186.923 41.5929Z" fill="#FEA950"/>
<path d="M85.5066 0.308947C92.3007 0.429353 96.9454 22.426 97.0055 23.1184C97.1032 24.1719 96.7274 25.5716 93.8039 26.0533C91.9475 26.3618 90.5947 26.4069 89.9183 25.4061C88.9563 23.9763 88.7082 20.3867 88.1972 20.5296C85.8297 21.1693 83.4247 21.1542 80.9671 20.4995C80.5087 20.3791 80.3884 22.11 80.1705 22.9829C79.9675 23.8182 79.9375 24.0289 79.7571 24.4654C79.1558 25.8124 78.0059 26.1059 75.8114 25.7823C73.1959 25.3986 72.4143 24.4353 72.5721 23.2388C72.6999 22.3056 76.6682 0.150914 85.5066 0.308947ZM82.1696 15.6833C82.8836 16.6164 86.4761 16.7444 87.0022 15.7059C87.4606 14.8103 86.3183 9.69309 84.7024 9.82855C83.1467 9.97906 81.403 14.6749 82.1696 15.6833Z" fill="white"/>
<path d="M69.8285 0.181032C69.8285 0.181032 66.3187 0.098253 66.2285 2.41607C66.0406 7.06675 67.2807 18.8966 62.0648 19.4535C60.3964 19.6341 59.036 19.1901 58.3746 17.5421C57.7659 15.9316 57.6156 14.7125 57.5705 12.184C57.5705 9.63291 57.6982 7.9397 57.6682 5.4488C57.6456 3.0482 57.6907 1.05398 54.2335 1.05398H53.73H53.2264C51.2423 1.00882 50.1751 2.20536 50.1375 4.01897C49.912 13.7944 49.3634 26.7306 62.8014 26.0608C74.8715 25.4588 73.8945 6.90872 73.8945 6.98397C73.8945 5.97557 73.8794 4.16196 73.6916 2.61173C73.4586 0.745435 72.5868 0.165981 69.8285 0.181032Z" fill="white"/>
<path d="M12.1462 0.195994C18.8878 0.120741 24.1337 21.997 24.2164 22.6893C24.3441 23.7429 24.0134 25.1501 21.1274 25.7221C19.2936 26.0833 17.9558 26.1736 17.2569 25.1878C16.2573 23.7881 15.9115 20.1984 15.408 20.3565C13.0781 21.0639 10.6957 21.1241 8.24558 20.5371C7.78712 20.4317 7.71197 22.1626 7.53159 23.043C7.35122 23.8859 7.33618 24.0966 7.16332 24.5331C6.63723 25.8726 5.47982 26.2263 3.29276 25.9704C0.684827 25.6694 -0.0291609 24.7588 0.000901723 23.5247C0.0234487 22.5765 3.38295 0.30135 12.1462 0.195994ZM9.29025 15.6832C10.0268 16.5938 13.5892 16.6164 14.0852 15.5628C14.5136 14.6522 13.2285 9.56509 11.6351 9.7457C10.0869 9.94136 8.50111 14.6974 9.29025 15.6832Z" fill="white"/>
<path d="M149.569 0.549417C156.281 0.587044 160.993 21.8914 161.083 22.5762C161.226 23.7351 160.94 25.3531 158.062 25.8648C156.228 26.1884 154.83 25.9626 154.146 24.9843C153.177 23.5846 152.966 20.3336 152.455 20.4766C150.125 21.1388 147.758 21.1539 145.323 20.5293C144.872 20.4164 144.767 22.1247 144.564 22.9901C144.368 23.8179 144.346 24.0286 144.173 24.4575C143.722 25.6014 142.467 26.0905 140.295 25.8046C137.71 25.4584 137.116 24.0813 137.176 22.5837C137.244 21.1915 140.844 0.496739 149.569 0.549417ZM146.458 15.7657C147.172 16.6763 150.719 16.7591 151.23 15.7281C151.674 14.8326 150.486 9.7981 148.893 9.95614C147.345 10.1217 145.684 14.7799 146.458 15.7657Z" fill="#67B9FA"/>
<path d="M48.5892 14.6446C49.0101 12.2515 48.5892 9.92614 47.8452 7.74378C47.1011 5.59905 45.7107 3.75533 43.7116 2.25779C41.7124 0.760235 39.2473 0.0302734 36.4139 0.0302734C33.8135 0.0302734 31.5362 0.647354 29.6272 1.91162C25.7191 4.40252 24.0506 8.35334 23.9529 12.8008C23.9078 15.0283 24.2761 17.0978 25.0652 19.0168C25.8544 20.9358 27.1997 22.5462 29.1086 23.8481C30.965 25.1876 33.1972 26.0154 35.7525 25.9552C38.9767 25.8875 40.2168 24.7737 41.2615 24.9242C41.5546 24.9694 42.3061 25.7671 42.3061 25.7671C43.2155 26.7303 44.7412 26.7755 45.7032 25.8649L46.6652 24.9543C47.6272 24.0437 47.9504 22.6516 46.7404 21.598C46.7404 21.598 46.1091 21.139 46.2143 20.7777C46.7554 18.9641 47.8302 18.9942 48.5892 14.6446ZM41.765 16.0593C41.5546 16.1271 41.1036 15.5401 41.1036 15.5401C40.1942 14.5768 38.6686 14.5317 37.7066 15.4422L36.7446 16.3528C35.4894 17.4741 35.7375 18.791 36.6469 19.7543C36.6469 19.7543 37.0151 20.0929 36.8874 20.1757C36.3462 20.5444 35.0084 20.2058 34.3771 19.8973C32.408 18.934 31.2957 17.6397 30.6945 15.2917C30.0932 13.0191 30.1834 11.0549 31.3483 9.12093C32.5132 7.11918 34.0389 6.0882 36.8798 6.0882C43.2832 6.09573 42.7345 15.7583 41.765 16.0593Z" fill="white"/>
<path d="M214.242 16.5111C215.144 17.1959 215.926 17.9033 215.986 18.7988C216.196 21.7713 211.589 26.0382 206.321 26.0231C190.568 25.9705 189.395 -0.353307 205.998 0.211096C208.823 0.308926 210.424 0.752923 211.807 1.7839C212.063 1.97956 212.311 2.17522 212.574 2.52891C213.438 3.68029 212.108 7.25485 209.928 7.15702C209.372 7.13444 208.936 7.00651 208.177 6.7958C205.704 6.11099 202.39 6.96136 201.3 9.79843C199.474 14.562 202.18 18.5504 205.922 18.9643C210.214 19.4384 210.364 14.4265 214.242 16.5111Z" fill="#FEA950"/>
<path d="M126.798 9.88856C125.213 8.81243 125.821 16.9549 120.726 16.9925C115.623 17.0301 115.856 8.66192 114.51 10.1444C114.255 10.4229 114.398 14.6371 114.48 18.5804C114.548 21.9668 114.728 24.9769 113.165 25.9327C112.053 26.6175 108.332 26.6927 107.446 25.7671C107.137 25.451 106.559 24.8565 106.461 23.961C106.296 22.5011 106.19 18.7535 106.145 17.0301C106.048 13.2524 106.371 1.91919 112.782 0.444214C119.591 -1.12106 120.185 5.62167 120.756 5.62167C121.342 5.62167 122.296 -0.210493 128.858 0.338859C134.322 0.797907 135.156 8.72965 135.366 13.2976C135.456 15.2466 135.562 18.0536 135.464 20.3789C135.366 22.7193 135.411 24.5179 134.179 25.3833C133.081 26.1584 130.616 26.0982 129.474 25.7671C128.85 25.5865 128.099 25.1425 127.753 24.4878C127.204 23.4493 127.137 21.8991 127.039 20.2134C126.798 15.6982 127.264 10.2046 126.798 9.88856Z" fill="#A06ECE"/>
</g>
<defs>
<clipPath id="clip0_27_16">
<rect width="216" height="43" fill="white"/>
</clipPath>
</defs>
</svg>
