<svg width="97" height="192" viewBox="0 0 97 192" fill="none" xmlns="http://www.w3.org/2000/svg">
<g filter="url(#filter0_d_103_4)">
<path fill-rule="evenodd" clip-rule="evenodd" d="M63.8685 118.455C62.7309 119.469 61.0138 119.469 59.8762 118.455L50.6232 110.208C48.5654 108.374 49.8627 104.968 52.6193 104.968L71.1254 104.968C73.8819 104.968 75.1793 108.374 73.1215 110.208L63.8685 118.455Z" fill="white"/>
</g>
<g opacity="0.6" filter="url(#filter1_d_103_4)">
<path fill-rule="evenodd" clip-rule="evenodd" d="M63.6937 99.4348C62.5524 100.463 60.8185 100.463 59.6772 99.4348L50.5465 91.2072C48.5046 89.3673 49.8062 85.9785 52.5548 85.9785L70.8162 85.9785C73.5647 85.9785 74.8663 89.3673 72.8244 91.2072L63.6937 99.4348Z" fill="white"/>
</g>
<g opacity="0.4" filter="url(#filter2_d_103_4)">
<path fill-rule="evenodd" clip-rule="evenodd" d="M63.3226 80.4456C62.1813 81.474 60.4474 81.474 59.3061 80.4456L50.1754 72.2179C48.1336 70.378 49.4351 66.9893 52.1837 66.9893L70.4451 66.9893C73.1936 66.9893 74.4952 70.378 72.4533 72.2179L63.3226 80.4456Z" fill="white"/>
</g>
<g opacity="0.2" filter="url(#filter3_d_103_4)">
<path fill-rule="evenodd" clip-rule="evenodd" d="M63.1243 61.4868C61.9867 62.5008 60.2697 62.5008 59.1321 61.4868L49.879 53.2395C47.8212 51.4054 49.1186 48 51.8752 48L70.3812 48C73.1378 48 74.4352 51.4054 72.3774 53.2395L63.1243 61.4868Z" fill="white"/>
</g>
<defs>
<filter id="filter0_d_103_4" x="1.61328" y="56.9683" width="144.518" height="134.247" filterUnits="userSpaceOnUse" color-interpolation-filters="sRGB">
<feFlood flood-opacity="0" result="BackgroundImageFix"/>
<feColorMatrix in="SourceAlpha" type="matrix" values="0 0 0 0 0 0 0 0 0 0 0 0 0 0 0 0 0 0 127 0" result="hardAlpha"/>
<feOffset dx="12" dy="12"/>
<feGaussianBlur stdDeviation="30"/>
<feComposite in2="hardAlpha" operator="out"/>
<feColorMatrix type="matrix" values="0 0 0 0 0.160784 0 0 0 0 0.223529 0 0 0 0 0.356863 0 0 0 0.15 0"/>
<feBlend mode="normal" in2="BackgroundImageFix" result="effect1_dropShadow_103_4"/>
<feBlend mode="normal" in="SourceGraphic" in2="effect1_dropShadow_103_4" result="shape"/>
</filter>
<filter id="filter1_d_103_4" x="1.54883" y="37.9785" width="144.273" height="134.228" filterUnits="userSpaceOnUse" color-interpolation-filters="sRGB">
<feFlood flood-opacity="0" result="BackgroundImageFix"/>
<feColorMatrix in="SourceAlpha" type="matrix" values="0 0 0 0 0 0 0 0 0 0 0 0 0 0 0 0 0 0 127 0" result="hardAlpha"/>
<feOffset dx="12" dy="12"/>
<feGaussianBlur stdDeviation="30"/>
<feComposite in2="hardAlpha" operator="out"/>
<feColorMatrix type="matrix" values="0 0 0 0 0.160784 0 0 0 0 0.223529 0 0 0 0 0.356863 0 0 0 0.15 0"/>
<feBlend mode="normal" in2="BackgroundImageFix" result="effect1_dropShadow_103_4"/>
<feBlend mode="normal" in="SourceGraphic" in2="effect1_dropShadow_103_4" result="shape"/>
</filter>
<filter id="filter2_d_103_4" x="1.17773" y="18.9893" width="144.273" height="134.228" filterUnits="userSpaceOnUse" color-interpolation-filters="sRGB">
<feFlood flood-opacity="0" result="BackgroundImageFix"/>
<feColorMatrix in="SourceAlpha" type="matrix" values="0 0 0 0 0 0 0 0 0 0 0 0 0 0 0 0 0 0 127 0" result="hardAlpha"/>
<feOffset dx="12" dy="12"/>
<feGaussianBlur stdDeviation="30"/>
<feComposite in2="hardAlpha" operator="out"/>
<feColorMatrix type="matrix" values="0 0 0 0 0.160784 0 0 0 0 0.223529 0 0 0 0 0.356863 0 0 0 0.15 0"/>
<feBlend mode="normal" in2="BackgroundImageFix" result="effect1_dropShadow_103_4"/>
<feBlend mode="normal" in="SourceGraphic" in2="effect1_dropShadow_103_4" result="shape"/>
</filter>
<filter id="filter3_d_103_4" x="0.869141" y="0" width="144.518" height="134.247" filterUnits="userSpaceOnUse" color-interpolation-filters="sRGB">
<feFlood flood-opacity="0" result="BackgroundImageFix"/>
<feColorMatrix in="SourceAlpha" type="matrix" values="0 0 0 0 0 0 0 0 0 0 0 0 0 0 0 0 0 0 127 0" result="hardAlpha"/>
<feOffset dx="12" dy="12"/>
<feGaussianBlur stdDeviation="30"/>
<feComposite in2="hardAlpha" operator="out"/>
<feColorMatrix type="matrix" values="0 0 0 0 0.160784 0 0 0 0 0.223529 0 0 0 0 0.356863 0 0 0 0.15 0"/>
<feBlend mode="normal" in2="BackgroundImageFix" result="effect1_dropShadow_103_4"/>
<feBlend mode="normal" in="SourceGraphic" in2="effect1_dropShadow_103_4" result="shape"/>
</filter>
</defs>
</svg>
