<svg width="28" height="28" viewBox="0 0 28 28" fill="none" xmlns="http://www.w3.org/2000/svg">
<path d="M6.12565 4.66699C4.04202 4.66699 2.33398 6.37503 2.33398 8.45866V19.542C2.33398 21.6256 4.04202 23.3337 6.12565 23.3337H21.8757C23.9593 23.3337 25.6673 21.6256 25.6673 19.542V8.45866C25.6673 6.37503 23.9593 4.66699 21.8757 4.66699H6.12565ZM6.12565 6.41699H21.8757C23.0132 6.41699 23.9173 7.32112 23.9173 8.45866V9.10352L14.0007 14.464L4.08398 9.10352V8.45866C4.08398 7.32112 4.98811 6.41699 6.12565 6.41699ZM4.08398 11.0928L13.5848 16.2288C13.7125 16.2978 13.8555 16.334 14.0007 16.334C14.1458 16.334 14.2888 16.2978 14.4165 16.2288L23.9173 11.0928V19.542C23.9173 20.6795 23.0132 21.5837 21.8757 21.5837H6.12565C4.98811 21.5837 4.08398 20.6795 4.08398 19.542V11.0928Z" fill="#29395B"/>
</svg>
