<svg width="22" height="22" viewBox="0 0 22 22" fill="none" xmlns="http://www.w3.org/2000/svg">
<path d="M11.0007 1.8335C6.70572 1.8335 3.20898 5.33024 3.20898 9.62516C3.20898 11.5533 3.91633 13.3215 5.07812 14.6812L5.08171 14.6847L5.08439 14.6883C5.08439 14.6883 8.39903 18.4706 9.5791 19.5966C10.3693 20.35 11.6311 20.35 12.4213 19.5966C13.7664 18.3136 16.9178 14.6865 16.9178 14.6865L16.9196 14.6838L16.9223 14.6812C18.0851 13.3215 18.7923 11.5533 18.7923 9.62516C18.7923 5.33024 15.2956 1.8335 11.0007 1.8335ZM11.0007 3.2085C14.5524 3.2085 17.4173 6.07342 17.4173 9.62516C17.4173 11.218 16.8369 12.6651 15.8767 13.7878C15.8705 13.7949 12.6461 17.4826 11.4724 18.6021C11.2002 18.8616 10.8002 18.8616 10.528 18.6021C9.54708 17.666 6.13365 13.799 6.1237 13.7878L6.1228 13.7869C5.16393 12.6643 4.58398 11.2175 4.58398 9.62516C4.58398 6.07342 7.44891 3.2085 11.0007 3.2085ZM11.0007 6.87516C10.1413 6.87516 9.40969 7.22218 8.93994 7.75065C8.47019 8.27912 8.25065 8.95676 8.25065 9.62516C8.25065 10.2936 8.47019 10.9712 8.93994 11.4997C9.40969 12.0281 10.1413 12.3752 11.0007 12.3752C11.86 12.3752 12.5916 12.0281 13.0614 11.4997C13.5311 10.9712 13.7507 10.2936 13.7507 9.62516C13.7507 8.95676 13.5311 8.27912 13.0614 7.75065C12.5916 7.22218 11.86 6.87516 11.0007 6.87516ZM11.0007 8.25016C11.5163 8.25016 11.8159 8.41877 12.0337 8.66374C12.2514 8.90871 12.3757 9.26232 12.3757 9.62516C12.3757 9.98801 12.2514 10.3416 12.0337 10.5866C11.8159 10.8316 11.5163 11.0002 11.0007 11.0002C10.485 11.0002 10.1854 10.8316 9.96761 10.5866C9.74986 10.3416 9.62565 9.98801 9.62565 9.62516C9.62565 9.26232 9.74986 8.90871 9.96761 8.66374C10.1854 8.41877 10.485 8.25016 11.0007 8.25016Z" fill="white"/>
</svg>
