<svg width="22" height="22" viewBox="0 0 22 22" fill="none" xmlns="http://www.w3.org/2000/svg">
<path d="M11.0007 1.83252C5.94628 1.83252 1.83398 5.94482 1.83398 10.9992C1.83398 12.5004 2.22939 13.9036 2.87061 15.1546L1.87695 18.7121C1.64552 19.5386 2.46278 20.3559 3.28955 20.1247L6.84969 19.131C8.09974 19.7709 9.50087 20.1659 11.0007 20.1659C16.055 20.1659 20.1673 16.0536 20.1673 10.9992C20.1673 5.94482 16.055 1.83252 11.0007 1.83252ZM11.0007 3.20752C15.3119 3.20752 18.7923 6.68797 18.7923 10.9992C18.7923 15.3104 15.3119 18.7909 11.0007 18.7909C9.62492 18.7909 8.33801 18.4331 7.21582 17.8079C7.05764 17.7198 6.87106 17.6976 6.69661 17.7462L3.31104 18.6906L4.25635 15.3068C4.30518 15.1321 4.28298 14.9451 4.19458 14.7867C3.56816 13.6637 3.20898 12.3763 3.20898 10.9992C3.20898 6.68797 6.68943 3.20752 11.0007 3.20752ZM11.0007 5.95841C9.49005 5.95841 8.25065 7.19781 8.25065 8.70841C8.24936 8.79952 8.26619 8.88997 8.30017 8.97451C8.33414 9.05905 8.38457 9.13599 8.44854 9.20087C8.51251 9.26575 8.58873 9.31727 8.67279 9.35243C8.75684 9.3876 8.84704 9.40571 8.93815 9.40571C9.02926 9.40571 9.11946 9.3876 9.20352 9.35243C9.28757 9.31727 9.36379 9.26575 9.42776 9.20087C9.49173 9.13599 9.54216 9.05905 9.57614 8.97451C9.61011 8.88997 9.62694 8.79952 9.62565 8.70841C9.62565 7.9411 10.2333 7.33341 11.0007 7.33341C11.768 7.33341 12.3757 7.9411 12.3757 8.70841C12.3757 9.43543 12.0808 9.64942 11.5628 10.1335C11.0449 10.6177 10.3132 11.3698 10.3132 12.6042C10.3119 12.6953 10.3287 12.7858 10.3627 12.8703C10.3966 12.9549 10.4471 13.0318 10.511 13.0967C10.575 13.1616 10.6512 13.2131 10.7353 13.2483C10.8193 13.2834 10.9095 13.3015 11.0007 13.3015C11.0918 13.3015 11.182 13.2834 11.266 13.2483C11.3501 13.2131 11.4263 13.1616 11.4903 13.0967C11.5542 13.0318 11.6047 12.9549 11.6386 12.8703C11.6726 12.7858 11.6894 12.6953 11.6882 12.6042C11.6882 11.8436 11.9877 11.6177 12.501 11.1379C13.0143 10.6582 13.7507 9.92244 13.7507 8.70841C13.7507 7.19781 12.5113 5.95841 11.0007 5.95841ZM11.0007 14.2084C10.7575 14.2084 10.5244 14.305 10.3525 14.4769C10.1806 14.6488 10.084 14.882 10.084 15.1251C10.084 15.3682 10.1806 15.6014 10.3525 15.7733C10.5244 15.9452 10.7575 16.0417 11.0007 16.0417C11.2438 16.0417 11.4769 15.9452 11.6488 15.7733C11.8207 15.6014 11.9173 15.3682 11.9173 15.1251C11.9173 14.882 11.8207 14.6488 11.6488 14.4769C11.4769 14.305 11.2438 14.2084 11.0007 14.2084Z" fill="white"/>
</svg>
