<svg width="22" height="22" viewBox="0 0 22 22" fill="none" xmlns="http://www.w3.org/2000/svg">
<path d="M10.9993 1.8335C8.47619 1.8335 6.41602 3.89367 6.41602 6.41683C6.41602 8.93999 8.47619 11.0002 10.9993 11.0002C13.5225 11.0002 15.5827 8.93999 15.5827 6.41683C15.5827 3.89367 13.5225 1.8335 10.9993 1.8335ZM10.9993 3.2085C12.7794 3.2085 14.2077 4.63677 14.2077 6.41683C14.2077 8.19689 12.7794 9.62516 10.9993 9.62516C9.21929 9.62516 7.79102 8.19689 7.79102 6.41683C7.79102 4.63677 9.21929 3.2085 10.9993 3.2085ZM5.4895 12.8335C4.49042 12.8335 3.66602 13.6579 3.66602 14.657V15.3543C3.66602 17.0062 4.71068 18.2841 6.09823 19.0496C7.48577 19.8152 9.24306 20.1668 10.9993 20.1668C12.7556 20.1668 14.5129 19.8152 15.9005 19.0496C17.0836 18.3969 17.974 17.3539 18.2235 16.0418H18.3336V14.657C18.3336 13.6579 17.5083 12.8335 16.5092 12.8335H5.4895ZM5.4895 14.2085H16.5092C16.765 14.2085 16.9586 14.4011 16.9586 14.657V14.6668H16.9577V15.3543C16.9577 16.4524 16.3409 17.2371 15.2362 17.8465C14.1316 18.456 12.566 18.7918 10.9993 18.7918C9.43272 18.7918 7.86709 18.456 6.76245 17.8465C5.65781 17.2371 5.04102 16.4524 5.04102 15.3543V14.657C5.04102 14.4011 5.23366 14.2085 5.4895 14.2085Z" fill="white"/>
</svg>
