<svg width="22" height="22" viewBox="0 0 22 22" fill="none" xmlns="http://www.w3.org/2000/svg">
<path d="M14.7457 1.8335C14.0776 1.8335 13.4351 2.09883 12.9625 2.57202L12.7844 2.75016H10.1624C9.49425 2.75016 8.85176 3.0155 8.3792 3.48869L0.737928 11.1309C-0.240768 12.1096 -0.240768 13.7168 0.737928 14.6955L5.47076 19.4292C6.44945 20.4079 8.05757 20.4079 9.03627 19.4292L10.0031 18.4615L10.0541 18.5125C11.0328 19.4912 12.6409 19.4912 13.6196 18.5125L21.2618 10.8704C21.7343 10.3978 22.0003 9.75635 22.0003 9.08805V3.896C21.9996 2.76528 21.0678 1.8335 19.9369 1.8335H14.7457ZM14.7457 3.2085H19.9369C20.3249 3.2085 20.6251 3.50779 20.6253 3.896V9.08805C20.6253 9.39142 20.5037 9.68322 20.2887 9.89819L12.6474 17.5395C12.1943 17.9926 11.4803 17.9926 11.0272 17.5395L6.29343 12.8066C5.84029 12.3535 5.84029 11.6395 6.29343 11.1864L13.9356 3.54419C14.1505 3.32896 14.4413 3.2085 14.7457 3.2085ZM10.1624 4.12516H11.4094L5.32126 10.2142C4.34257 11.1929 4.34257 12.8001 5.32126 13.7788L9.0309 17.4893L8.0641 18.4561C7.61096 18.9093 6.89696 18.9093 6.44382 18.4561L1.7101 13.7233C1.25696 13.2702 1.25696 12.5562 1.7101 12.103L9.35227 4.46086C9.56721 4.24563 9.85798 4.12516 10.1624 4.12516ZM17.8744 4.5835C17.5097 4.5835 17.16 4.72836 16.9021 4.98622C16.6443 5.24409 16.4994 5.59382 16.4994 5.9585C16.4994 6.32317 16.6443 6.67291 16.9021 6.93077C17.16 7.18863 17.5097 7.3335 17.8744 7.3335C18.2391 7.3335 18.5888 7.18863 18.8467 6.93077C19.1045 6.67291 19.2494 6.32317 19.2494 5.9585C19.2494 5.59382 19.1045 5.24409 18.8467 4.98622C18.5888 4.72836 18.2391 4.5835 17.8744 4.5835Z" fill="white"/>
</svg>
