<svg width="22" height="22" viewBox="0 0 22 22" fill="none" xmlns="http://www.w3.org/2000/svg">
<path d="M11.0007 1.83252C5.94628 1.83252 1.83398 5.94482 1.83398 10.9992C1.83398 12.5004 2.22939 13.9036 2.87061 15.1546L1.87695 18.7121C1.64552 19.5386 2.46278 20.3559 3.28955 20.1247L6.84969 19.131C8.09974 19.7709 9.50087 20.1659 11.0007 20.1659C16.055 20.1659 20.1673 16.0536 20.1673 10.9992C20.1673 5.94482 16.055 1.83252 11.0007 1.83252ZM11.0007 3.20752C15.3119 3.20752 18.7923 6.68797 18.7923 10.9992C18.7923 15.3104 15.3119 18.7909 11.0007 18.7909C9.62492 18.7909 8.33801 18.4331 7.21582 17.8079C7.05764 17.7198 6.87106 17.6976 6.69661 17.7462L3.31104 18.6906L4.25635 15.3068C4.30518 15.1321 4.28298 14.9451 4.19458 14.7867C3.56816 13.6637 3.20898 12.3763 3.20898 10.9992C3.20898 6.68797 6.68943 3.20752 11.0007 3.20752ZM11.0087 6.00586C10.879 6.00429 10.7515 6.03943 10.641 6.10723C10.5304 6.17502 10.4413 6.27271 10.3839 6.389L9.29354 8.59831L6.85506 8.9528C6.72809 8.97122 6.60881 9.02479 6.5107 9.10746C6.4126 9.19014 6.33958 9.29861 6.2999 9.42062C6.26022 9.54262 6.25548 9.6733 6.28619 9.79786C6.31691 9.92243 6.38186 10.0359 6.47371 10.1255L8.23812 11.8451L7.82186 14.2738C7.80016 14.4002 7.81426 14.5301 7.86256 14.649C7.91085 14.7678 7.99143 14.8707 8.09517 14.9462C8.19891 15.0216 8.32168 15.0665 8.44961 15.0758C8.57754 15.0851 8.70552 15.0585 8.81909 14.9989L11.0007 13.8521L13.1822 14.9989C13.2958 15.0585 13.4238 15.0851 13.5517 15.0758C13.6796 15.0665 13.8024 15.0216 13.9061 14.9462C14.0099 14.8707 14.0904 14.7678 14.1387 14.649C14.187 14.5301 14.2011 14.4002 14.1794 14.2738L13.7632 11.8451L15.5276 10.1255C15.6194 10.0359 15.6844 9.92243 15.7151 9.79786C15.7458 9.6733 15.7411 9.54262 15.7014 9.42062C15.6617 9.29861 15.5887 9.19014 15.4906 9.10746C15.3925 9.02479 15.2732 8.97122 15.1462 8.9528L12.7078 8.59831L11.6174 6.389C11.5612 6.27516 11.4746 6.17911 11.3672 6.11148C11.2597 6.04386 11.1357 6.0073 11.0087 6.00586ZM11.0007 8.2474L11.6344 9.53109C11.6838 9.63099 11.7566 9.71741 11.8468 9.7829C11.9369 9.8484 12.0416 9.89101 12.1519 9.90706L13.5698 10.113L12.5439 11.1129C12.4642 11.1908 12.4047 11.2869 12.3704 11.3929C12.3361 11.499 12.328 11.6118 12.347 11.7216L12.5887 13.1342L11.3202 12.4673C11.2217 12.4155 11.112 12.3885 11.0007 12.3885C10.8893 12.3885 10.7796 12.4155 10.6811 12.4673L9.4126 13.1342L9.6543 11.7216C9.67326 11.6118 9.66525 11.499 9.63094 11.3929C9.59663 11.2869 9.53706 11.1908 9.45736 11.1129L8.43148 10.113L9.84945 9.90706C9.9597 9.89101 10.0644 9.8484 10.1545 9.7829C10.2447 9.71741 10.3175 9.63099 10.3669 9.53109L11.0007 8.2474Z" fill="white"/>
</svg>
