<svg width="50" height="50" viewBox="0 0 50 50" fill="none" xmlns="http://www.w3.org/2000/svg">
<circle r="24.5" transform="matrix(-1 0 0 1 25 25)" fill="white" stroke="#D7DAE0"/>
<path d="M20.1953 19.4932C20.3321 19.4932 20.4658 19.5341 20.5793 19.6105C20.6928 19.6869 20.7808 19.7955 20.8323 19.9223C20.8837 20.0491 20.8961 20.1883 20.868 20.3222C20.8398 20.4561 20.7723 20.5786 20.6742 20.6739L17.2645 24.0837H34.3965C34.4876 24.0824 34.578 24.0992 34.6626 24.1332C34.7471 24.1671 34.824 24.2176 34.8889 24.2815C34.9538 24.3455 35.0053 24.4217 35.0405 24.5058C35.0756 24.5898 35.0938 24.68 35.0938 24.7712C35.0938 24.8623 35.0756 24.9525 35.0405 25.0365C35.0053 25.1206 34.9538 25.1968 34.8889 25.2608C34.824 25.3247 34.7471 25.3752 34.6626 25.4091C34.578 25.4431 34.4876 25.4599 34.3965 25.4587H17.2645L20.6742 28.8684C20.7402 28.9318 20.7929 29.0076 20.8292 29.0916C20.8654 29.1756 20.8846 29.2659 20.8855 29.3574C20.8865 29.4489 20.8691 29.5396 20.8346 29.6243C20.8 29.7089 20.7489 29.7859 20.6842 29.8506C20.6195 29.9152 20.5426 29.9664 20.4579 30.0009C20.3732 30.0355 20.2825 30.0528 20.191 30.0519C20.0996 30.051 20.0092 30.0318 19.9252 29.9955C19.8413 29.9592 19.7654 29.9066 19.702 29.8406L15.1187 25.2572C14.9898 25.1283 14.9174 24.9535 14.9174 24.7712C14.9174 24.5889 14.9898 24.414 15.1187 24.2851L19.702 19.7017C19.7661 19.6357 19.8428 19.5833 19.9275 19.5475C20.0122 19.5116 20.1033 19.4932 20.1953 19.4932Z" fill="#343C4B"/>
</svg>
