<svg width="50" height="50" viewBox="0 0 50 50" fill="none" xmlns="http://www.w3.org/2000/svg">
<circle cx="25" cy="25" r="24.5" fill="white" stroke="#D7DAE0"/>
<path d="M29.8047 19.4932C29.6679 19.4932 29.5342 19.5341 29.4207 19.6105C29.3072 19.6869 29.2192 19.7955 29.1677 19.9223C29.1163 20.0491 29.1039 20.1883 29.132 20.3222C29.1602 20.4561 29.2277 20.5786 29.3258 20.6739L32.7355 24.0837H15.6035C15.5124 24.0824 15.422 24.0992 15.3374 24.1332C15.2529 24.1671 15.176 24.2176 15.1111 24.2815C15.0462 24.3455 14.9947 24.4217 14.9595 24.5058C14.9244 24.5898 14.9062 24.68 14.9062 24.7712C14.9062 24.8623 14.9244 24.9525 14.9595 25.0365C14.9947 25.1206 15.0462 25.1968 15.1111 25.2608C15.176 25.3247 15.2529 25.3752 15.3374 25.4091C15.422 25.4431 15.5124 25.4599 15.6035 25.4587H32.7355L29.3258 28.8684C29.2598 28.9318 29.2071 29.0076 29.1708 29.0916C29.1346 29.1756 29.1154 29.2659 29.1145 29.3574C29.1135 29.4489 29.1309 29.5396 29.1654 29.6243C29.2 29.7089 29.2511 29.7859 29.3158 29.8506C29.3805 29.9152 29.4574 29.9664 29.5421 30.0009C29.6268 30.0355 29.7175 30.0528 29.809 30.0519C29.9004 30.051 29.9908 30.0318 30.0748 29.9955C30.1587 29.9592 30.2346 29.9066 30.298 29.8406L34.8813 25.2572C35.0102 25.1283 35.0826 24.9535 35.0826 24.7712C35.0826 24.5889 35.0102 24.414 34.8813 24.2851L30.298 19.7017C30.2339 19.6357 30.1572 19.5833 30.0725 19.5475C29.9878 19.5116 29.8967 19.4932 29.8047 19.4932Z" fill="#343C4B"/>
</svg>
