<svg width="58" height="58" viewBox="0 0 58 58" fill="none" xmlns="http://www.w3.org/2000/svg">
<rect width="58" height="58" rx="17" fill="#00D355"/>
<path d="M29.0007 14.8335C21.1935 14.8335 14.834 21.193 14.834 29.0002C14.834 36.8074 21.1935 43.1668 29.0007 43.1668C33.2269 43.1668 37.0272 41.3042 39.6257 38.3579V39.6252C39.623 39.8129 39.6577 39.9993 39.7277 40.1735C39.7977 40.3477 39.9016 40.5062 40.0334 40.6399C40.1652 40.7736 40.3223 40.8798 40.4955 40.9522C40.6687 41.0247 40.8546 41.062 41.0423 41.062C41.2301 41.062 41.4159 41.0247 41.5891 40.9522C41.7623 40.8798 41.9194 40.7736 42.0512 40.6399C42.183 40.5062 42.287 40.3477 42.357 40.1735C42.427 39.9993 42.4616 39.8129 42.459 39.6252V34.6668C42.4589 34.2911 42.3097 33.9308 42.044 33.6651C41.7783 33.3995 41.418 33.2502 41.0423 33.2502H36.084C35.8963 33.2475 35.7099 33.2822 35.5357 33.3522C35.3615 33.4222 35.2029 33.5261 35.0692 33.6579C34.9355 33.7897 34.8294 33.9468 34.7569 34.12C34.6845 34.2932 34.6471 34.4791 34.6471 34.6668C34.6471 34.8546 34.6845 35.0404 34.7569 35.2136C34.8294 35.3868 34.9355 35.5439 35.0692 35.6757C35.2029 35.8075 35.3615 35.9115 35.5357 35.9815C35.7099 36.0515 35.8963 36.0862 36.084 36.0835H37.8424C35.7676 38.6719 32.5869 40.3335 29.0007 40.3335C22.7248 40.3335 17.6673 35.2761 17.6673 29.0002C17.6673 22.7243 22.7248 17.6668 29.0007 17.6668C35.2765 17.6668 40.334 22.7243 40.334 29.0002V29.3446C40.3313 29.5324 40.366 29.7188 40.436 29.893C40.506 30.0672 40.6099 30.2257 40.7418 30.3594C40.8736 30.4931 41.0306 30.5993 41.2038 30.6717C41.377 30.7442 41.5629 30.7815 41.7507 30.7815C41.9384 30.7815 42.1243 30.7442 42.2975 30.6717C42.4707 30.5993 42.6277 30.4931 42.7595 30.3594C42.8914 30.2257 42.9953 30.0672 43.0653 29.893C43.1353 29.7188 43.17 29.5324 43.1673 29.3446V29.0002C43.1673 21.193 36.8078 14.8335 29.0007 14.8335ZM28.9799 21.1891C28.6044 21.1946 28.2465 21.349 27.9847 21.6182C27.723 21.8875 27.5788 22.2497 27.584 22.6252V29.7085C27.584 30.0842 27.7333 30.4445 27.999 30.7102C28.2646 30.9759 28.6249 31.1251 29.0007 31.1252H33.959C34.1467 31.1278 34.3331 31.0931 34.5073 31.0231C34.6815 30.9531 34.8401 30.8492 34.9737 30.7174C35.1074 30.5856 35.2136 30.4285 35.2861 30.2553C35.3585 30.0821 35.3958 29.8962 35.3958 29.7085C35.3958 29.5208 35.3585 29.3349 35.2861 29.1617C35.2136 28.9885 35.1074 28.8314 34.9737 28.6996C34.8401 28.5678 34.6815 28.4639 34.5073 28.3939C34.3331 28.3239 34.1467 28.2892 33.959 28.2918H30.4173V22.6252C30.4199 22.4357 30.3845 22.2477 30.3132 22.0722C30.2418 21.8968 30.136 21.7374 30.002 21.6035C29.868 21.4696 29.7085 21.3639 29.5329 21.2928C29.3574 21.2216 29.1693 21.1864 28.9799 21.1891Z" fill="white"/>
</svg>
