<svg width="70" height="70" viewBox="0 0 70 70" fill="none" xmlns="http://www.w3.org/2000/svg">
<circle cx="35" cy="35" r="33" fill="#FF8806" stroke="white" stroke-width="4"/>
<path d="M39.3535 49.8535C39.1582 50.0488 38.8418 50.0488 38.6465 49.8535L34.3332 45.5402L30.0202 49.8535C29.8248 50.0488 29.5085 50.0488 29.3132 49.8535L27.1465 47.6868C26.9512 47.4915 26.9512 47.1752 27.1465 46.9798L33.9798 40.1465C34.0772 40.0485 34.2052 39.9998 34.3332 39.9998C34.4612 39.9998 34.5892 40.0485 34.6868 40.1462L41.5202 46.9795C41.7155 47.1748 41.7155 47.4912 41.5202 47.6865L39.3535 49.8535Z" fill="white"/>
<path d="M39.6875 39.8535C39.4922 40.0488 39.1758 40.0488 38.9805 39.8535L34.6672 35.5402L30.3542 39.8535C30.1588 40.0488 29.8425 40.0488 29.6472 39.8535L27.4805 37.6868C27.2852 37.4915 27.2852 37.1752 27.4805 36.9798L34.3138 30.1465C34.4112 30.0485 34.5392 29.9998 34.6672 29.9998C34.7952 29.9998 34.9232 30.0485 35.0208 30.1462L41.8542 36.9795C42.0495 37.1748 42.0495 37.4912 41.8542 37.6865L39.6875 39.8535Z" fill="white"/>
<path d="M40.0215 29.8535C39.8261 30.0488 39.5098 30.0488 39.3145 29.8535L35.0011 25.5402L30.6881 29.8535C30.4928 30.0488 30.1765 30.0488 29.9811 29.8535L27.8145 27.6868C27.6191 27.4915 27.6191 27.1752 27.8145 26.9798L34.6478 20.1465C34.7451 20.0485 34.8731 19.9998 35.0011 19.9998C35.1291 19.9998 35.2571 20.0485 35.3548 20.1462L42.1881 26.9795C42.3835 27.1748 42.3835 27.4912 42.1881 27.6865L40.0215 29.8535Z" fill="white"/>
</svg>
