<svg width="28" height="28" viewBox="0 0 28 28" fill="none" xmlns="http://www.w3.org/2000/svg">
<path d="M26.4693 20.4178C25.4397 18.5649 22.7877 16.3386 21.6928 15.3698C21.3932 15.1045 21.3611 14.6456 21.6338 14.3523C23.7233 12.107 25.3945 9.52719 25.9697 7.96828C26.2235 7.27964 25.6981 6.55203 24.9579 6.55203H22.8077C22.099 6.55203 21.6843 6.80641 21.4866 7.21146C19.7501 10.7698 18.2605 12.3098 17.2178 13.2099C16.634 13.7141 15.7236 13.2964 15.7236 12.5293C15.7236 11.0511 15.7236 9.14047 15.7236 7.78552C15.7236 7.12839 15.1862 6.59672 14.5234 6.59672L10.5954 6.55203C10.101 6.55203 9.81857 7.11177 10.1153 7.50422L10.7639 8.43521C11.0079 8.75776 11.1397 9.15021 11.1397 9.55297L11.1363 13.7456C11.1363 14.4749 10.2523 14.8312 9.72748 14.3202C7.95201 12.5911 6.41144 9.06026 5.85686 7.37187C5.69644 6.88318 5.23868 6.55318 4.71962 6.55203L2.60154 6.54688C1.80691 6.54688 1.22597 7.30026 1.44196 8.0588C3.37727 14.8519 7.34816 21.3144 14.4248 22.0151C15.1221 22.0838 15.7236 21.5223 15.7236 20.8274V18.624C15.7236 17.992 16.2192 17.4489 16.8563 17.4329C16.8786 17.4323 16.901 17.4323 16.9233 17.4323C18.795 17.4323 20.8913 20.1565 21.6247 21.4307C21.8355 21.7973 22.2297 22.0208 22.6559 22.0208H25.505C26.3363 22.0208 26.8697 21.1391 26.4693 20.4178Z" fill="#2787F5"/>
</svg>
