<svg width="28" height="28" viewBox="0 0 28 28" fill="none" xmlns="http://www.w3.org/2000/svg">
<path d="M14.0007 2.33203C7.56782 2.33203 2.33398 7.56587 2.33398 13.9987C2.33398 15.9093 2.83723 17.6952 3.65332 19.2874L2.38867 23.8151C2.09412 24.8671 3.13427 25.9072 4.18652 25.613L8.71761 24.3483C10.3086 25.1627 12.0918 25.6654 14.0007 25.6654C20.4335 25.6654 25.6673 20.4315 25.6673 13.9987C25.6673 7.56587 20.4335 2.33203 14.0007 2.33203ZM14.0007 4.08203C19.4877 4.08203 23.9173 8.51169 23.9173 13.9987C23.9173 19.4857 19.4877 23.9154 14.0007 23.9154C12.2497 23.9154 10.6118 23.4601 9.18359 22.6644C8.98227 22.5522 8.74481 22.5239 8.52279 22.5858L4.21387 23.7878L5.41699 19.4811C5.47915 19.2587 5.45089 19.0208 5.33838 18.8192C4.54112 17.3899 4.08398 15.7513 4.08398 13.9987C4.08398 8.51169 8.51365 4.08203 14.0007 4.08203ZM10.0575 8.74984C9.87137 8.74984 9.5707 8.81964 9.31462 9.09847C9.05912 9.37614 8.33936 10.0496 8.33936 11.4204C8.33936 12.7912 9.33698 14.1151 9.4764 14.3018C9.61523 14.4867 11.4033 17.3905 14.2354 18.507C16.5885 19.4345 17.0671 19.2498 17.5781 19.2031C18.0891 19.1576 19.227 18.5302 19.4591 17.8792C19.6913 17.2282 19.6915 16.6714 19.6232 16.5565C19.5538 16.4404 19.3677 16.37 19.0889 16.2306C18.8106 16.0912 17.4417 15.4176 17.1862 15.3249C16.9307 15.2321 16.7439 15.185 16.5584 15.4639C16.3729 15.7427 15.8393 16.3698 15.6766 16.5553C15.5138 16.742 15.3516 16.7654 15.0728 16.626C14.7933 16.4854 13.8969 16.1919 12.8317 15.2428C12.0034 14.5049 11.4461 13.5928 11.2834 13.314C11.1212 13.0363 11.2659 12.8837 11.4053 12.7454C11.5307 12.6206 11.684 12.4206 11.8234 12.2578C11.9617 12.0951 12.0075 11.9796 12.1003 11.7941C12.193 11.6092 12.1469 11.4459 12.0775 11.3065C12.0081 11.1671 11.4663 9.78872 11.2184 9.23747C11.0102 8.7743 10.7907 8.76426 10.5918 8.75667C10.4296 8.75026 10.243 8.74984 10.0575 8.74984Z" fill="#29395B"/>
</svg>
