<svg width="58" height="58" viewBox="0 0 58 58" fill="none" xmlns="http://www.w3.org/2000/svg">
<rect width="58" height="58" rx="17" fill="#4A93FF"/>
<path d="M27.1042 19.25C22.7761 19.25 19.25 22.7761 19.25 27.1042C19.25 31.4323 22.7761 34.9583 27.1042 34.9583C28.9764 34.9583 30.6974 34.297 32.049 33.1979L37.363 38.512C37.4379 38.5899 37.5276 38.6522 37.6268 38.6951C37.726 38.738 37.8328 38.7606 37.9409 38.7617C38.049 38.7628 38.1562 38.7423 38.2563 38.7015C38.3564 38.6606 38.4473 38.6002 38.5238 38.5238C38.6002 38.4473 38.6606 38.3564 38.7015 38.2563C38.7423 38.1562 38.7628 38.049 38.7617 37.9409C38.7606 37.8328 38.738 37.726 38.6951 37.6268C38.6522 37.5276 38.5899 37.4379 38.512 37.363L33.1979 32.049C34.297 30.6974 34.9583 28.9764 34.9583 27.1042C34.9583 22.7761 31.4323 19.25 27.1042 19.25ZM27.1042 20.875C30.5541 20.875 33.3333 23.6543 33.3333 27.1042C33.3333 28.7847 32.6704 30.3031 31.5951 31.4216C31.5288 31.4703 31.4703 31.5288 31.4216 31.5951C30.3031 32.6704 28.7847 33.3333 27.1042 33.3333C23.6543 33.3333 20.875 30.5541 20.875 27.1042C20.875 23.6543 23.6543 20.875 27.1042 20.875ZM27.0915 23.5717C26.8762 23.5751 26.671 23.6637 26.521 23.8183C26.3711 23.9728 26.2886 24.1805 26.2917 24.3958V26.2917H24.3958C24.2882 26.2901 24.1813 26.31 24.0814 26.3502C23.9814 26.3903 23.8905 26.4499 23.8138 26.5255C23.7372 26.6011 23.6763 26.6912 23.6347 26.7906C23.5932 26.8899 23.5718 26.9965 23.5718 27.1042C23.5718 27.2118 23.5932 27.3184 23.6347 27.4178C23.6763 27.5171 23.7372 27.6072 23.8138 27.6828C23.8905 27.7584 23.9814 27.818 24.0814 27.8581C24.1813 27.8983 24.2882 27.9182 24.3958 27.9167H26.2917V29.8125C26.2901 29.9202 26.31 30.0271 26.3502 30.127C26.3903 30.2269 26.4499 30.3178 26.5255 30.3945C26.6011 30.4712 26.6912 30.5321 26.7906 30.5736C26.8899 30.6152 26.9965 30.6366 27.1042 30.6366C27.2118 30.6366 27.3184 30.6152 27.4178 30.5736C27.5171 30.5321 27.6072 30.4712 27.6828 30.3945C27.7584 30.3178 27.818 30.2269 27.8581 30.127C27.8983 30.0271 27.9182 29.9202 27.9167 29.8125V27.9167H29.8125C29.9202 27.9182 30.0271 27.8983 30.127 27.8581C30.2269 27.818 30.3178 27.7584 30.3945 27.6828C30.4712 27.6072 30.5321 27.5171 30.5736 27.4178C30.6152 27.3184 30.6366 27.2118 30.6366 27.1042C30.6366 26.9965 30.6152 26.8899 30.5736 26.7906C30.5321 26.6912 30.4712 26.6011 30.3945 26.5255C30.3178 26.4499 30.2269 26.3903 30.127 26.3502C30.0271 26.31 29.9202 26.2901 29.8125 26.2917H27.9167V24.3958C27.9182 24.2871 27.8979 24.1791 27.857 24.0784C27.8161 23.9776 27.7553 23.8861 27.6784 23.8092C27.6014 23.7324 27.5098 23.6717 27.409 23.6309C27.3082 23.5901 27.2002 23.57 27.0915 23.5717Z" fill="white"/>
</svg>
